<svg width="608" height="108" viewBox="0 0 608 108" fill="none" xmlns="http://www.w3.org/2000/svg">
<g clip-path="url(#clip0)">
<path d="M44.837 31.8824C57.5135 29.0588 59.7436 28.4706 60.3305 28.3529C68.1945 26.2353 72.7721 23.4118 74.1806 19.5294C75.4718 16 74.298 14.1176 73.2416 13.2941C72.0679 12.3529 70.6594 12 68.664 12H67.1382C66.0818 12 63.2648 12.3529 51.5274 14.9412C42.8416 16.8235 36.0339 18.5882 31.4563 19.8824C23.2401 22.1176 17.8409 23.7647 15.0239 24.8235C7.98142 27.4118 4.22543 30 3.16906 33.0588C2.69957 34.2353 1.64319 37.2941 3.52119 39.2941C4.57756 40.4706 6.10343 41.0588 8.33354 41.0588C9.27254 41.0588 11.0332 40.9412 16.4324 39.5294C16.6671 39.5294 17.3714 39.2941 27.7003 36.5882C26.2918 40.9412 24.766 46.1176 23.1227 52.3529C21.8316 57.1765 19.9536 64 17.4888 73.1765C14.3196 85.4118 13.7328 88 13.6154 88.8235C12.7938 93.6471 13.1459 96.9412 14.7891 98.8235C15.8455 100.118 17.3714 100.706 19.0146 100.706C21.5969 100.706 23.4749 100.118 24.8834 98.8235C26.0571 97.7647 27.1135 96 28.0525 93.4118L28.1698 93.0588C29.461 87.7647 30.6347 82.7059 31.8084 77.8824C32.9822 73.1765 34.1559 69.0588 35.4471 65.5294C36.5034 62.7059 37.6772 58.4706 39.203 52.5882C41.3158 43.4118 43.3111 36.4706 44.837 31.8824Z" fill="#7584A1"/>
<path d="M73.7113 65.2939C74.6502 64.4704 75.5892 63.6468 76.5282 62.8233C81.5753 58.3527 85.4487 54.7056 88.1483 51.8821C92.3738 47.4115 94.8387 43.8821 95.895 40.9409C96.9514 37.9998 96.834 35.4115 95.6603 33.1762C94.1344 30.4704 91.6696 29.0586 88.6178 29.0586C83.8055 29.0586 78.4062 30.588 72.5375 33.6468C68.312 35.7645 64.0865 38.7057 59.7437 42.2351C54.4618 46.4704 53.7576 47.6468 53.4055 48.7057C52.5838 50.8233 53.1707 52.2351 53.7576 53.1762C54.2271 53.7645 54.814 54.2351 55.5182 54.588L50.9406 66.1174C47.6541 75.0586 44.9545 82.588 42.9591 88.588C40.8464 94.588 39.6726 97.9998 39.3205 99.0586C38.3815 101.647 38.851 103.529 39.4379 104.706C40.3769 106.706 42.1375 107.882 44.2502 107.882C45.6587 107.882 47.0672 107.412 48.3584 106.47C49.6495 105.529 50.4711 104.353 51.058 102.706C51.1753 102.235 51.5275 101.412 52.2317 98.8233C52.5838 98.9409 52.936 98.9409 53.2881 98.9409C57.6309 98.9409 62.9128 96.235 69.3684 90.8233C75.3545 85.8821 78.641 81.9998 79.8147 78.7056C81.8101 73.0586 79.9321 69.5292 78.0541 67.6468C76.6456 66.588 75.2371 65.7645 73.7113 65.2939ZM63.2649 82.9409C59.8611 85.6468 58.3352 85.9998 57.8657 86.1174C57.0441 86.2351 56.2224 86.3527 55.5182 86.588C56.2224 84.1174 56.6919 82.588 56.9267 81.5292C58.2178 80.9409 59.7437 80.1174 61.5043 79.2939C63.9692 78.1174 66.1993 77.6468 68.1946 77.5292C67.2557 79.2939 65.6124 81.0586 63.2649 82.9409ZM83.2186 41.5292C82.397 42.588 80.9885 44.2351 78.1715 47.0586C75.4719 49.7645 71.7159 53.2939 66.7862 57.5292C66.434 57.7645 66.1993 57.9998 65.8472 58.3527C66.0819 57.7645 66.3167 57.0586 66.5514 56.3527L67.8425 52.588C68.1947 51.5292 68.6641 50.3527 69.251 49.2939C72.1854 46.8233 75.0024 44.8233 77.702 43.5292C79.6974 42.4704 81.5754 41.8821 83.2186 41.5292Z" fill="#7584A1"/>
<path d="M138.033 66.471L138.15 66.2358C140.497 59.8828 139.793 53.6475 136.037 47.6475C132.046 41.1769 126.295 37.8828 118.783 37.8828C113.384 37.8828 107.163 41.1769 99.7684 48.0005C92.1391 54.9416 86.6225 62.9416 83.5707 71.6475C81.3406 77.8828 81.458 83.8828 84.0402 89.5299C87.4441 97.0593 93.0781 98.7063 97.1862 98.7063C105.05 98.7063 113.736 94.7063 122.774 86.7063C130.638 79.7652 135.568 73.5299 137.798 67.4122C137.68 67.1769 137.798 66.824 138.033 66.471ZM99.2989 86.3534C98.712 86.3534 97.0688 86.3534 95.6603 82.9416C94.3692 79.7652 94.4866 76.1181 96.0124 71.8828C97.1862 68.5887 100.003 64.3534 104.463 59.2946C109.745 53.2946 114.323 50.2358 118.314 50.2358C119.135 50.2358 121.6 50.2358 124.417 55.0593C126.412 58.471 126.765 61.7652 125.473 65.2946C123.83 69.7652 119.957 74.4711 113.736 79.2946C105.989 85.0593 101.646 86.3534 99.2989 86.3534Z" fill="#7584A1"/>
<path d="M183.574 43.2937C182.869 38.7054 179.818 36.1172 175.475 36.1172C171.367 36.1172 167.376 36.9407 163.62 38.5878C163.033 38.8231 161.977 39.4113 158.925 41.0584C158.221 39.7642 156.812 38.9407 155.169 38.9407C154.934 38.9407 154.7 38.9407 154.465 38.9407C152.822 39.176 151.413 39.8819 150.357 41.0584C149.535 41.9995 148.831 43.2937 148.244 44.7054C148.009 45.2937 147.774 45.9995 147.657 46.5878C146.718 47.2937 145.779 48.1172 144.723 49.176C143.079 50.8231 142.258 51.9995 141.906 53.0584C141.436 54.3525 141.554 55.7642 142.14 56.9407C142.61 57.7642 143.314 58.4701 144.253 58.9407C143.784 60.5878 143.314 62.5878 142.845 64.9407C141.788 70.3525 140.967 74.1172 140.497 76.1172C140.028 78.1172 139.089 81.8819 137.798 87.4113C135.685 96.7054 136.154 99.5289 137.445 101.176C138.15 102.117 139.206 102.588 140.38 102.588C142.023 102.588 143.784 101.882 145.31 100.588C146.718 99.4113 147.774 97.9995 148.361 96.5878L148.479 96.2348C148.948 93.9995 149.418 91.6466 150.005 89.2937C150.357 87.5289 150.826 85.8819 151.178 84.4701C158.69 80.3525 163.855 77.176 166.906 74.7054C174.184 68.9407 179.348 62.1172 182.165 54.4701C183.574 50.3525 184.043 46.4701 183.574 43.2937ZM153.995 70.7054C154.23 69.2937 154.582 67.8819 154.934 66.2348C155.873 61.9995 156.812 57.8819 157.751 53.8819C161.977 50.9407 163.033 50.3525 163.268 50.2348C165.498 49.0584 167.728 48.4701 170.076 48.4701C170.31 48.4701 170.428 48.4701 170.428 48.4701C170.428 48.4701 170.545 48.5878 170.545 48.8231C170.78 49.8819 170.662 51.4113 169.958 53.176C168.198 57.8819 165.733 61.9995 162.446 65.176C161.273 66.1172 158.925 67.8819 153.995 70.7054Z" fill="#7584A1"/>
<path d="M278.765 43.2937C279.938 40.1172 278.647 38.5878 277.826 37.8819C276.887 37.176 275.595 36.8231 274.07 36.8231H273.013C272.074 36.8231 270.079 37.0584 261.863 38.9407C255.759 40.2348 251.064 41.4113 247.778 42.4701C242.026 44.1172 238.27 45.176 236.158 45.9995C233.693 46.9407 231.697 47.8819 230.289 48.8231C231.697 45.6466 232.519 43.6466 232.871 42.8231C233.575 40.8231 233.458 39.176 232.636 37.8819C232.049 37.0584 230.876 36.1172 228.763 36.1172C227.12 36.1172 225.242 36.4701 223.364 37.2937C221.368 38.1172 219.725 39.4113 218.551 41.0584C216.673 43.7642 211.392 50.2348 202.706 60.2348C199.654 63.7642 196.837 66.9407 194.372 69.7642C194.724 68.9407 194.959 68.1172 195.311 67.2937L202.823 46.4701C204.232 42.7054 204.232 41.176 203.88 39.9995C203.645 39.2937 202.706 36.8231 199.302 36.8231C197.072 36.8231 195.194 37.5289 193.785 38.9407C192.612 40.1172 191.673 41.5289 191.086 43.2937C188.738 49.4113 186.626 55.176 184.748 60.3525C182.752 65.6466 180.992 70.4701 179.466 74.8231L173.127 92.2348C172.423 94.2348 172.071 95.7642 172.306 97.0584C172.423 97.6466 172.893 100.941 177.47 100.941C180.053 100.941 182.752 99.2936 186.156 95.5289C187.212 94.3525 189.208 92.1172 192.142 88.9407C193.785 87.176 196.837 83.7642 201.18 78.8231L206.814 72.4701C205.875 74.7054 205.171 76.5878 204.584 78.1172C203.762 80.2348 203.058 82.5878 202.354 85.0584C201.649 87.4113 200.945 89.8819 200.241 92.2348C199.419 94.7054 199.185 96.4701 199.771 97.8819C200.124 98.8231 201.297 100.823 204.584 100.823C209.983 100.823 212.448 93.9995 213.387 91.6466C214.443 88.3525 215.5 85.2936 216.439 82.4701C217.378 79.6466 218.199 77.4113 218.904 75.5289C219.843 73.0584 222.307 67.2937 226.298 58.4701C226.65 57.6466 227.002 56.8231 227.354 55.9995C227.472 56.4701 227.707 56.9407 228.059 57.2937C228.998 58.3525 230.289 58.8231 232.049 58.8231C232.754 58.8231 234.045 58.7054 237.918 57.7642C238.036 57.7642 238.505 57.6466 244.256 56.1172C243.435 58.8231 242.496 61.9995 241.557 65.6466C240.618 68.9407 239.327 73.7642 237.683 80.2348C235.453 88.7054 234.984 90.5878 234.866 91.2936C234.28 94.9407 234.632 97.4113 235.923 99.0583C236.862 100.117 238.153 100.705 239.561 100.705C241.557 100.705 243.083 100.235 244.256 99.176C245.195 98.3525 246.017 96.9407 246.721 95.0584L246.839 94.7054C247.66 91.0584 248.599 87.4113 249.421 84.1172C250.243 80.8231 251.064 77.9995 251.886 75.5289C252.59 73.5289 253.529 70.5878 254.585 66.3525C256.229 60.1172 257.52 55.4113 258.576 52.2348C267.027 50.3525 268.553 49.9995 269.022 49.8819C274.304 48.4701 277.591 46.3525 278.765 43.2937Z" fill="#7584A1"/>
<path d="M295.784 57.0585C293.671 57.0585 291.323 57.4114 288.389 58.2349L290.737 51.6467C291.558 49.5291 292.38 47.0585 293.554 44.2349C294.61 41.4114 295.314 39.5291 295.666 38.7055C296.488 36.5879 295.784 35.1761 295.314 34.4702C294.375 33.1761 292.967 32.5879 290.854 32.5879C288.976 32.5879 287.45 33.2938 286.276 34.4702C285.455 35.4114 284.75 36.5879 284.046 38.1173L283.929 38.3526C283.811 38.7055 283.107 40.3526 279.938 47.5291C278.882 49.9997 277.825 52.5879 276.886 55.1761C274.774 61.0585 272.661 67.1761 270.548 73.4114C268.435 79.7644 266.44 85.7644 264.797 91.0585C264.093 93.0585 264.093 94.9408 264.679 96.5879C265.501 98.5879 267.144 99.882 269.14 99.882C269.374 99.882 269.609 99.882 269.844 99.882C271.722 99.6467 273.248 98.8232 274.656 97.5291C279.351 95.5291 285.22 91.2938 292.615 84.8232C302.357 76.2349 304.352 72.8232 305.056 70.9408C307.169 65.2938 305.291 61.7644 303.296 59.882C301.3 57.9997 298.718 57.0585 295.784 57.0585ZM281.112 79.9997L283.694 71.9997C286.511 70.7055 287.802 70.235 288.506 69.9997C289.093 69.882 290.15 69.6467 292.028 69.6467C291.676 70.4702 290.384 72.5879 284.75 77.2938C283.577 78.1173 282.403 79.0585 281.112 79.9997Z" fill="#7584A1"/>
<path d="M379.941 32.4707C377.829 32.4707 375.833 34.1178 372.312 38.8236C369.025 43.1766 365.974 47.4119 363.157 51.5295C357.757 59.4119 351.654 68.5883 345.198 79.0589C336.043 93.6472 335.691 94.8236 335.456 95.4119C334.752 97.2942 334.517 98.706 334.752 100C334.987 102.353 336.747 103.765 339.212 103.765C340.738 103.765 342.029 103.53 343.32 102.941C344.846 102.235 346.02 101.059 346.607 99.5295C347.546 96.9413 348.602 94.5883 349.893 92.4707C350.832 91.0589 351.654 89.5295 352.71 88.0001C355.527 83.4119 358.814 78.3531 362.218 72.9413C364.096 70.1178 366.208 66.8236 368.556 63.4119C368.556 63.6472 368.556 64.0001 368.439 64.2354C368.086 68.3531 367.734 71.8825 367.617 74.706C367.5 76.0001 367.5 78.0001 367.382 80.706L367.265 88.0001C367.265 91.0589 367.382 93.0589 367.734 94.5883C368.556 97.5295 370.551 99.1766 373.368 99.1766C375.246 99.1766 376.772 98.5883 377.946 97.5295C378.298 97.1766 378.768 96.5883 379.707 94.706C380.059 93.8825 380.646 92.9413 380.88 81.6472L381.467 62.4707L383.697 42.0001C383.932 39.6472 384.049 37.8825 384.049 36.706C383.697 33.6472 381.585 32.4707 379.941 32.4707Z" fill="#7584A1"/>
<path d="M422.783 61.6466C421.961 61.6466 420.67 61.8819 414.215 63.9995C412.102 64.7054 410.106 65.4113 408.346 66.1172C408.581 65.176 408.815 64.2348 409.05 63.176C409.52 61.176 410.341 58.8231 411.28 56.1172C414.801 54.8231 418.323 53.4113 421.844 51.9995C434.051 47.2937 437.103 44.7054 438.042 42.3525C439.215 39.2937 437.689 37.6466 436.985 37.176C436.046 36.4701 434.755 36.1172 433.229 36.1172C432.76 36.1172 432.29 36.1172 431.586 36.2348C430.647 36.2348 429.121 36.5878 424.778 38.2348C419.966 40.1172 416.679 41.4113 414.567 42.2348C413.98 40.3525 412.337 39.2937 410.341 39.2937C408.463 39.2937 406.703 40.2348 405.177 42.2348C404.238 43.4113 403.416 44.9407 402.594 46.8231C401.069 47.529 400.482 47.8819 400.13 48.2348C398.839 49.176 397.9 50.3525 397.43 51.7642C396.608 54.1172 397.195 55.7642 397.782 56.7054C398.017 57.0584 398.252 57.2937 398.486 57.529C397.782 59.7642 397.195 62.1172 396.374 64.7054C395.317 68.3525 394.261 72.5878 393.087 77.2937C391.913 81.8819 391.092 85.2937 390.505 87.529C390.035 89.2937 389.566 90.9407 388.979 92.4701C388.04 93.2937 387.453 94.3525 386.984 95.5289C386.397 97.176 386.279 98.8231 386.866 100.235C387.571 102.117 389.214 103.176 391.327 103.176C395.317 103.176 401.538 100.941 410.459 96.4701C421.844 90.8231 424.661 88.1172 425.483 85.8819C426.304 83.7642 425.717 82.3525 425.13 81.529C424.544 80.7054 423.487 79.8819 421.492 79.7643C420.553 79.7643 419.262 79.8819 415.388 81.529C413.98 82.1172 411.867 83.176 408.933 84.4701C407.524 85.0584 405.529 85.9995 403.064 87.0584C403.416 85.8819 403.651 84.5878 404.003 83.176C404.238 82.4701 404.355 81.5289 404.59 80.7054C408.581 79.176 412.219 77.6466 415.623 76.1172C423.839 72.3525 425.952 70.2348 426.656 68.2348C427.126 66.9407 427.126 65.6466 426.539 64.3525C426.069 62.7054 424.661 61.6466 422.783 61.6466Z" fill="#7584A1"/>
<path d="M496.846 64.2353C500.602 60.3529 503.889 56.4706 506.588 52.8235C509.523 48.9412 511.401 45.6471 512.457 42.8235C512.809 41.8824 513.866 38.8235 512.34 36.5882C511.87 35.8824 510.697 34.7059 508.349 34.7059C506.471 34.7059 504.71 35.5294 502.95 37.2941C501.541 38.7059 500.368 40.5882 499.546 42.8235C499.429 43.0588 498.959 44.1176 496.377 47.4118C494.381 49.8824 492.034 52.8235 489.217 55.8824C486.517 58.9412 484.053 61.5294 482.057 63.4118C482.644 61.7647 483.231 60.2353 483.7 58.7059C485.344 54.2353 486.752 50.1176 488.043 46.5882C489.334 43.1765 489.687 41.0588 489.217 39.6471C488.63 37.5294 486.87 36.2353 484.522 36.2353C483.818 36.2353 483.231 36.3529 482.644 36.7059C482.879 34.5882 481.822 33.4118 481.236 33.0588C480.297 32.3529 479.005 32 477.48 32C477.01 32 476.541 32 475.836 32.1176C474.897 32.1176 473.371 32.4706 469.029 34.1176C464.216 36 460.93 37.2941 458.817 38.1176C458.23 36.2353 456.587 35.1765 454.592 35.1765C452.714 35.1765 450.953 36.1176 449.427 38.1176C448.488 39.2941 447.666 40.8235 446.845 42.7059C445.788 43.1765 444.967 43.6471 444.263 44.1176C442.267 45.4118 441.68 47.0588 441.446 48.2353C441.094 50 441.446 51.7647 442.502 53.0588C442.737 53.2941 442.854 53.5294 443.089 53.6471C441.915 57.6471 440.741 61.6471 439.568 65.8824C438.042 71.0588 436.985 75.0588 436.281 77.8823C435.577 80.5882 434.99 82.8235 434.403 84.5882C433.816 86.3529 432.995 88.9412 431.821 92.1176L430.295 96.4706C429.473 98.7059 429.943 100.235 430.412 101.176C431.234 102.706 432.877 103.647 434.755 103.647C436.633 103.647 438.159 103.176 439.333 102.118C440.389 101.176 441.211 100 441.68 98.5882C441.798 98.3529 441.915 98 443.91 91.2941C445.319 86.8235 446.493 83.0588 447.549 80C448.84 76.2353 450.718 69.7647 453.183 60C453.887 57.0588 454.709 54.4706 455.296 52.3529C458.817 51.0588 462.338 49.6471 465.859 48.2353C471.728 46 475.484 44.2353 477.832 42.7059C477.01 44.3529 476.188 46.4706 475.249 48.9412C474.897 50 473.137 54.5882 470.085 62.8235C467.268 70.4706 465.273 75.7647 464.099 78.9412C463.277 79.5294 462.573 80.2353 461.869 80.9412C460.812 82.1176 460.108 83.1765 459.639 84.3529C458.817 86.7059 458.934 88.4706 459.404 89.7647C458.7 91.7647 458.348 93.1765 458.23 94.2353C457.995 96 458.582 97.1765 459.169 97.7647C459.756 98.3529 460.695 99.1765 462.456 99.1765C465.273 99.1765 467.62 98 469.498 95.7647C470.085 95.0588 470.554 94.2353 471.141 93.1765L477.597 96.2353C482.057 98.2353 485.461 99.1765 488.161 99.1765C490.156 99.1765 491.917 98.3529 493.208 96.7059C493.795 96 494.264 94.9412 494.734 93.5294C495.203 92.3529 495.673 89.2941 490.978 87.0588L490.743 86.9412C489.1 86.2353 487.456 85.6471 485.931 85.0588L478.184 81.5294C479.475 80.3529 481.118 78.9412 483.114 77.1765C488.395 72.7059 492.856 68.4706 496.846 64.2353Z" fill="#7584A1"/>
<path d="M558.351 66.471L558.468 66.2358C560.816 59.8828 560.111 53.6475 556.355 47.6475C552.365 41.1769 546.613 37.8828 539.101 37.8828C533.702 37.8828 527.481 41.1769 520.087 48.0005C512.457 54.9416 506.941 62.9416 503.889 71.6475C501.659 77.8828 501.776 83.8828 504.358 89.5299C507.762 97.0593 513.396 98.7063 517.504 98.7063C525.368 98.7063 534.054 94.7063 543.092 86.7063C550.956 79.7652 555.886 73.5299 558.116 67.4122C557.999 67.1769 558.116 66.824 558.351 66.471ZM519.734 86.3534C519.148 86.3534 517.504 86.3534 516.096 82.9416C514.805 79.7652 514.922 76.1181 516.448 71.8828C517.622 68.5887 520.439 64.3534 524.782 59.2946C530.063 53.2946 534.641 50.2358 538.632 50.2358C539.453 50.2358 541.918 50.2358 544.735 55.0593C546.731 58.471 547.083 61.7652 545.792 65.2946C544.148 69.7652 540.275 74.4711 534.054 79.2946C526.425 85.0593 521.965 86.3534 519.734 86.3534Z" fill="#7584A1"/>
<path d="M607.765 6.47093C607.413 5.52976 606.357 3.41211 602.718 3.41211C599.549 3.41211 596.732 6.35329 593.211 13.2945C590.629 18.7062 588.046 24.2356 585.582 29.6474L579.009 43.7651C574.079 54.7062 570.675 62.118 568.68 65.8827C568.327 66.4709 567.975 67.2945 567.623 68.3533C566.919 70.4709 566.802 72.118 567.388 73.5298C567.858 74.5886 569.032 76.4709 572.67 76.4709C577.6 76.4709 581.473 74.0004 583.704 69.2945C587.577 61.6474 590.394 56.0003 591.92 52.3533C593.563 48.7062 595.441 43.765 597.554 37.765L606.709 12.4709C606.709 12.3533 606.826 12.118 607.178 11.5298L607.296 11.1768C608.117 9.41211 608.235 7.8827 607.765 6.47093Z" fill="#7584A1"/>
<path d="M575.37 82C573.022 82 569.736 83.2941 565.041 86.2353C558.82 90 557.529 92 556.942 93.4118C556.003 96.1176 556.707 97.8824 557.412 98.8235C558.82 100.588 561.402 100.824 563.515 100.824C566.919 100.824 570.558 99.6471 574.196 97.2941C577.952 94.8235 580.3 92.4706 581.239 90C582.06 87.7647 581.943 85.8824 580.887 84.3529C579.83 82.8235 577.952 82 575.37 82Z" fill="#7584A1"/>
<path d="M42.4891 28.4702C55.1656 25.6467 57.3957 25.0585 57.9826 24.9408C65.8466 22.8232 70.4243 19.9997 71.8327 16.1173C73.1239 12.5879 71.9501 10.7055 70.8938 9.88201C69.72 8.94083 68.3115 8.58789 66.3161 8.58789H64.7903C63.7339 8.58789 60.9169 8.94083 49.1795 11.5291C40.4938 13.4114 33.686 15.1761 29.1084 16.4702C20.8922 18.7055 15.493 20.3526 12.676 21.4114C5.63352 23.9997 1.87753 26.5879 0.821163 29.6467C0.351665 30.8232 -0.704706 33.882 1.17329 35.882C2.22966 37.0585 3.75553 37.6467 5.98564 37.6467C6.92464 37.6467 8.68526 37.5291 14.0845 36.1173C14.3192 36.1173 15.0235 35.882 25.3524 33.1761C23.9439 37.5291 22.4181 42.7055 20.7748 48.9408C19.4837 53.7644 17.6057 60.5879 15.1409 69.7644C11.6196 81.9996 11.1501 84.5879 10.9154 85.4114C10.0938 90.2349 10.4459 93.5291 12.0891 95.4114C13.1455 96.7055 14.6714 97.2938 16.3146 97.2938C18.8968 97.2938 20.7748 96.7055 22.1833 95.4114C23.3571 94.3526 24.4134 92.5879 25.3524 89.9996L25.4698 89.6467C26.7609 84.3526 27.9347 79.2938 29.1084 74.4702C30.2822 69.7644 31.4559 65.6467 32.747 62.1173C33.8034 59.2938 34.9771 55.0585 36.503 49.1761C38.9679 39.9997 40.9632 32.9408 42.4891 28.4702Z" fill="white"/>
<path d="M71.3636 61.7646C72.3026 60.9411 73.2416 60.1175 74.1806 59.294C79.2277 54.8234 83.101 51.1764 85.8006 48.3528C90.0261 43.8822 92.491 40.3528 93.5474 37.4116C94.6037 34.4705 94.4864 31.8822 93.3126 29.6469C91.7868 26.9411 89.3219 25.5293 86.2701 25.5293C81.4578 25.5293 76.0586 27.0587 70.1898 30.1175C65.9644 32.2352 61.7389 35.1764 57.396 38.7058C52.1142 42.9411 51.4099 44.1175 51.0578 45.1764C50.2362 47.294 50.823 48.7058 51.4099 49.6469C51.8794 50.2352 52.4663 50.7058 53.1705 51.0587L48.5929 62.5881C45.3064 71.5293 42.6068 79.0587 40.6115 85.0587C38.4987 91.0587 37.325 94.4705 36.9729 95.5293C36.0339 98.1175 36.5034 99.9999 37.0902 101.176C38.0292 103.176 39.7898 104.353 41.9026 104.353C43.3111 104.353 44.7196 103.882 46.0107 102.941C47.3018 102 48.1234 100.823 48.7103 99.1764C48.8277 98.7058 49.1798 97.8822 49.8841 95.294C50.2362 95.4116 50.5883 95.4116 50.9404 95.4116C55.2833 95.4116 60.5651 92.7058 67.0207 87.294C73.0068 82.3528 76.2933 78.4705 77.4671 75.1764C79.4624 69.5293 77.5844 65.9999 75.7064 64.1175C74.298 63.0587 72.8895 62.2352 71.3636 61.7646ZM60.9173 79.5293C57.5134 82.2352 55.9875 82.5881 55.518 82.7058C54.6964 82.8234 53.8748 82.9411 53.1705 83.1763C53.8748 80.7058 54.3443 79.1764 54.579 78.1175C55.8702 77.5293 57.396 76.7058 59.1566 75.8822C61.6215 74.7058 63.8516 74.2352 65.847 74.1175C65.0254 75.7646 63.3821 77.6469 60.9173 79.5293ZM80.8709 37.9999C80.0493 39.0587 78.6408 40.7058 75.8238 43.5293C73.1242 46.2352 69.3682 49.7646 64.4385 53.9999C64.0864 54.2352 63.8516 54.4705 63.4995 54.8234C63.7342 54.2352 63.969 53.5293 64.2037 52.8234L65.4949 49.0587C65.847 47.9999 66.3165 46.8234 66.9034 45.7646C69.8377 43.294 72.6547 41.294 75.3543 39.9999C77.4671 38.9411 79.2277 38.3528 80.8709 37.9999Z" fill="white"/>
<path d="M135.685 62.9418L135.802 62.7065C138.15 56.3535 137.446 50.1182 133.69 44.1182C129.699 37.6476 123.948 34.3535 116.436 34.3535C111.036 34.3535 104.815 37.6476 97.4209 44.4712C89.7915 51.4123 84.2749 59.4123 81.2232 68.1182C78.9931 74.3535 79.1105 80.3535 81.6927 86.0006C85.0966 93.53 90.7305 95.177 94.8387 95.177C102.703 95.177 111.388 91.177 120.426 83.177C128.29 76.2359 133.22 70.0006 135.45 63.8829C135.333 63.6476 135.45 63.4123 135.685 62.9418ZM97.0688 82.8241C96.4819 82.8241 94.8387 82.8241 93.4302 79.4123C92.139 76.2359 92.2564 72.5888 93.7823 68.3535C94.956 65.0594 97.773 60.8241 102.233 55.7653C107.515 49.7653 112.093 46.7065 116.083 46.7065C116.905 46.7065 119.37 46.7065 122.187 51.53C124.182 54.9417 124.534 58.2359 123.243 61.7653C121.6 66.2359 117.727 70.9418 111.506 75.7653C103.642 81.53 99.2989 82.8241 97.0688 82.8241Z" fill="white"/>
<path d="M181.226 39.7644C180.522 35.1761 177.47 32.5879 173.127 32.5879C169.019 32.5879 165.029 33.4114 161.273 35.0585C160.686 35.2938 159.629 35.882 156.578 37.5291C155.873 36.2349 154.465 35.4114 152.822 35.4114C152.587 35.4114 152.352 35.4114 152.117 35.4114C150.474 35.6467 149.066 36.3526 148.009 37.5291C147.188 38.4702 146.483 39.7644 145.897 41.1761C145.662 41.7644 145.427 42.4702 145.31 43.0585C144.371 43.7644 143.432 44.5879 142.375 45.6467C140.732 47.2938 139.91 48.4702 139.558 49.5291C139.089 50.8232 139.206 52.235 139.793 53.4114C140.263 54.235 140.967 54.9408 141.906 55.4114C141.436 57.0585 140.967 59.0585 140.497 61.4114C139.441 66.8232 138.619 70.5879 138.15 72.5879C137.68 74.5879 136.741 78.3526 135.45 83.882C133.337 93.1762 133.807 95.9997 135.098 97.6467C135.802 98.5879 136.859 99.0585 138.032 99.0585C139.676 99.0585 141.436 98.3526 142.962 97.0585C144.371 95.882 145.427 94.4703 146.014 93.0585L146.131 92.7056C146.601 90.4703 147.07 88.1173 147.657 85.7644C148.009 83.9997 148.479 82.3526 148.831 80.9408C156.343 76.8232 161.507 73.6467 164.559 71.1761C171.836 65.4114 177.001 58.5879 179.818 50.9408C181.226 46.8232 181.813 43.0585 181.226 39.7644ZM151.765 67.1761C152 65.7644 152.352 64.3526 152.704 62.7055C153.643 58.4703 154.582 54.3526 155.521 50.3526C159.747 47.4114 160.803 46.8232 161.038 46.7055C163.268 45.5291 165.498 44.9408 167.846 44.9408C168.08 44.9408 168.198 44.9408 168.198 44.9408C168.198 44.9408 168.315 45.0585 168.315 45.2938C168.55 46.3526 168.432 47.882 167.728 49.6467C165.968 54.3526 163.503 58.4703 160.216 61.6467C159.042 62.5879 156.695 64.4703 151.765 67.1761Z" fill="white"/>
<path d="M276.417 39.7644C277.591 36.5879 276.3 35.0585 275.478 34.3526C274.539 33.6467 273.248 33.2938 271.722 33.2938H270.666C269.727 33.2938 267.731 33.5291 259.515 35.4114C253.412 36.7055 248.717 37.882 245.43 38.9408C239.679 40.5879 235.923 41.6467 233.81 42.4702C231.345 43.4114 229.35 44.3526 227.941 45.2938C229.35 42.1173 230.172 40.1173 230.524 39.2938C231.228 37.2938 231.111 35.6467 230.289 34.3526C229.702 33.5291 228.528 32.5879 226.416 32.5879C224.772 32.5879 222.894 32.9408 221.016 33.7644C219.021 34.5879 217.378 35.882 216.204 37.5291C214.326 40.2349 209.044 46.7055 200.358 56.7055C197.307 60.2349 194.49 63.4114 192.025 66.2349C192.377 65.4114 192.612 64.5879 192.964 63.7644L200.476 42.9408C201.884 39.1761 201.884 37.6467 201.532 36.4702C201.297 35.7644 200.358 33.2938 196.955 33.2938C194.724 33.2938 192.846 33.9997 191.438 35.4114C190.264 36.5879 189.325 37.9997 188.738 39.7644C186.391 45.882 184.278 51.6467 182.4 56.8232C180.405 62.1173 178.644 66.9408 177.118 71.2938L170.78 88.7055C170.076 90.7055 169.724 92.2349 169.958 93.529C170.076 94.1173 170.545 97.4114 175.123 97.4114C177.705 97.4114 180.405 95.7643 183.809 91.9996C184.865 90.8232 186.86 88.5879 189.795 85.4114C191.438 83.6467 194.49 80.2349 198.833 75.2938L204.467 68.9408C203.528 71.1761 202.823 73.0585 202.236 74.5879C201.415 76.7055 200.711 79.0585 200.006 81.5291C199.302 83.882 198.598 86.3526 197.894 88.7055C197.072 91.1761 196.837 92.9408 197.424 94.3526C197.776 95.2938 198.95 97.2938 202.236 97.2938C207.636 97.2938 210.101 90.4702 211.04 88.1173C212.096 84.8232 213.152 81.7643 214.091 78.9408C215.03 76.1173 215.852 73.882 216.556 71.9996C217.495 69.5291 219.96 63.7644 223.951 54.9408C224.303 54.1173 224.655 53.2938 225.007 52.4702C225.124 52.9408 225.359 53.4114 225.711 53.7644C226.65 54.8232 227.941 55.2938 229.702 55.2938C230.406 55.2938 231.697 55.1761 235.571 54.2349C235.688 54.2349 236.158 54.1173 241.909 52.5879C241.087 55.2938 240.148 58.4702 239.209 62.1173C238.27 65.4114 236.979 70.2349 235.336 76.7055C233.106 85.1761 232.636 87.0585 232.519 87.7643C231.932 91.4114 232.284 93.882 233.575 95.529C234.514 96.5879 235.806 97.1761 237.214 97.1761C239.209 97.1761 240.735 96.7055 241.909 95.6467C242.848 94.8232 243.67 93.4114 244.374 91.5291L244.491 91.1761C245.313 87.5291 246.252 83.882 247.073 80.5879C247.895 77.2938 248.717 74.4702 249.538 71.9996C250.243 69.9996 251.182 67.0585 252.238 62.8232C253.881 56.5879 255.172 51.882 256.229 48.7055C264.68 46.8232 266.206 46.4702 266.675 46.3526C271.957 44.9408 275.243 42.8232 276.417 39.7644Z" fill="white"/>
<path d="M293.554 53.5292C291.441 53.5292 289.093 53.8821 286.159 54.7057L288.507 48.1174C289.328 45.9998 290.15 43.5292 291.324 40.7056C292.38 37.8821 293.084 35.9998 293.436 35.1762C294.258 33.0586 293.554 31.6468 293.084 30.9409C292.145 29.6468 290.737 29.0586 288.624 29.0586C286.746 29.0586 285.22 29.7645 284.046 30.9409C283.225 31.8821 282.52 33.0586 281.816 34.588L281.699 34.8233C281.581 35.1762 280.877 36.8233 277.708 43.9998C276.652 46.4704 275.595 49.0586 274.656 51.6468C272.544 57.5292 270.431 63.6468 268.318 69.8821C266.205 76.2351 264.21 82.2351 262.567 87.5292C261.863 89.5292 261.863 91.4115 262.449 93.0586C263.271 95.0586 264.914 96.3527 266.91 96.3527C267.144 96.3527 267.379 96.3527 267.614 96.3527C269.492 96.1174 271.018 95.2939 272.426 93.9998C277.121 91.9998 282.99 87.7645 290.385 81.2939C300.127 72.7056 302.122 69.2939 302.826 67.4115C304.939 61.7645 303.061 58.2351 301.066 56.3527C298.953 54.588 296.488 53.5292 293.554 53.5292ZM278.764 76.588L281.347 68.588C284.164 67.2939 285.455 66.8233 286.159 66.588C286.746 66.4704 287.802 66.2351 289.68 66.2351C289.328 67.0586 288.037 69.1762 282.403 73.8821C281.347 74.588 280.173 75.5292 278.764 76.588Z" fill="white"/>
<path d="M377.594 29.0586C375.481 29.0586 373.486 30.7057 369.964 35.4115C366.678 39.7645 363.626 43.9998 360.809 48.1174C355.41 55.9998 349.307 65.1763 342.851 75.6468C333.696 90.2351 333.344 91.4115 333.109 91.9998C332.405 93.8821 332.17 95.2939 332.405 96.588C332.639 98.941 334.4 100.353 336.865 100.353C338.391 100.353 339.682 100.117 340.973 99.5292C342.499 98.8233 343.673 97.6468 344.259 96.1174C345.198 93.5292 346.255 91.1763 347.546 89.0586C348.485 87.6468 349.307 86.1174 350.363 84.588C353.18 79.9998 356.466 74.941 359.87 69.5292C361.748 66.7057 363.861 63.4115 366.208 59.9998C366.208 60.2351 366.208 60.588 366.091 60.8233C365.739 64.941 365.387 68.4704 365.269 71.2939C365.152 72.588 365.152 74.588 365.035 77.2939L364.917 84.588C364.917 87.6468 365.035 89.6468 365.387 91.1763C366.208 94.1174 368.204 95.7645 371.021 95.7645C372.899 95.7645 374.425 95.1763 375.598 94.1174C375.951 93.7645 376.42 93.1763 377.359 91.2939C377.711 90.4704 378.298 89.5292 378.533 78.2351L379.12 59.0586L381.35 38.588C381.585 36.2351 381.702 34.4704 381.702 33.2939C381.35 30.1174 379.354 29.0586 377.594 29.0586Z" fill="white"/>
<path d="M420.435 58.2364C419.614 58.2364 418.323 58.4717 411.867 60.5894C409.754 61.2953 407.759 62.0012 405.998 62.707C406.233 61.7659 406.468 60.8247 406.703 59.7659C407.172 57.7659 407.994 55.4129 408.933 52.707C412.454 51.4129 415.975 50.0012 419.496 48.5894C431.703 43.8835 434.755 41.2953 435.694 38.9423C436.868 35.8835 435.342 34.2364 434.638 33.7659C433.699 33.06 432.408 32.707 430.882 32.707C430.412 32.707 429.943 32.707 429.239 32.8247C428.3 32.8247 426.774 33.1776 422.431 34.8247C417.618 36.707 414.332 38.0012 412.219 38.8247C411.632 36.9423 409.989 35.8835 407.994 35.8835C406.116 35.8835 404.355 36.8247 402.829 38.8247C401.89 40.0012 401.069 41.5306 400.247 43.4129C398.721 44.1188 398.134 44.4717 397.782 44.8247C396.491 45.7659 395.552 46.9423 395.083 48.3541C394.261 50.707 394.848 52.3541 395.435 53.2953C395.669 53.6482 395.904 53.8835 396.139 54.1188C395.435 56.3541 394.848 58.707 394.026 61.2953C392.97 64.9423 391.913 69.1776 390.74 73.8835C389.566 78.4717 388.744 81.8835 388.158 84.1188C387.688 85.8835 387.218 87.5306 386.632 89.06C385.693 89.8835 385.106 90.9423 384.636 92.1188C384.049 93.7659 383.932 95.4129 384.519 96.8247C385.223 98.707 386.866 99.7659 388.979 99.7659C392.97 99.7659 399.191 97.5306 408.111 93.06C419.496 87.4129 422.313 84.707 423.135 82.4717C423.957 80.3541 423.37 78.9423 422.783 78.1188C422.196 77.2953 421.14 76.4717 419.144 76.3541C418.205 76.3541 416.914 76.4717 413.041 78.1188C411.632 78.707 409.52 79.7659 406.585 81.06C405.177 81.6482 403.181 82.5894 400.717 83.6482C401.069 82.4717 401.303 81.1776 401.656 79.7659C401.89 79.06 402.008 78.1188 402.242 77.2953C406.233 75.7659 409.872 74.2365 413.276 72.707C421.492 68.9423 423.605 66.8247 424.309 64.8247C424.778 63.5306 424.778 62.2364 424.191 60.9423C423.839 59.1776 422.313 58.2364 420.435 58.2364Z" fill="white"/>
<path d="M494.499 60.8232C498.255 56.9408 501.541 53.0585 504.241 49.4114C507.175 45.5291 509.053 42.2349 510.11 39.4114C510.462 38.4702 511.518 35.4114 509.992 33.1761C509.523 32.4702 508.349 31.2938 506.002 31.2938C504.124 31.2938 502.363 32.1173 500.602 33.882C499.194 35.2938 498.02 37.1761 497.199 39.4114C497.081 39.6467 496.612 40.7055 494.029 43.9997C492.034 46.4702 489.687 49.4114 486.87 52.4702C484.17 55.5291 481.705 58.1173 479.71 59.9997C480.297 58.3526 480.883 56.8232 481.353 55.2938C482.996 50.8232 484.405 46.7055 485.696 43.1761C486.987 39.7644 487.339 37.6467 486.87 36.2349C486.283 34.1173 484.522 32.8232 482.175 32.8232C481.47 32.8232 480.883 32.9408 480.297 33.2938C480.531 31.1761 479.475 29.9997 478.888 29.6467C477.949 28.9408 476.658 28.5879 475.132 28.5879C474.663 28.5879 474.193 28.5879 473.489 28.7055C472.55 28.7055 471.024 29.0585 466.681 30.7055C461.869 32.5879 458.582 33.882 456.47 34.7055C455.883 32.8232 454.239 31.7644 452.244 31.7644C450.366 31.7644 448.605 32.7055 447.08 34.7055C446.141 35.882 445.319 37.4114 444.497 39.2938C443.441 39.7644 442.619 40.2349 441.915 40.7055C439.92 41.9997 439.333 43.6467 439.098 44.8232C438.746 46.5879 439.098 48.3526 440.154 49.6467C440.389 49.882 440.507 50.1173 440.741 50.2349C439.568 54.2349 438.394 58.2349 437.22 62.4702C435.694 67.6467 434.638 71.6467 433.934 74.4702C433.229 77.1761 432.642 79.4114 432.056 81.1761C431.469 82.9408 430.647 85.5291 429.473 88.7055L427.948 93.0585C427.126 95.2938 427.595 96.8232 428.065 97.7644C428.887 99.2938 430.53 100.235 432.408 100.235C434.286 100.235 435.812 99.7644 436.985 98.7055C438.042 97.7644 438.746 96.5879 439.333 95.1761C439.45 94.9408 439.568 94.5879 441.563 87.882C442.971 83.4114 444.145 79.6467 445.202 76.5879C446.493 72.8232 448.371 66.3526 450.836 56.5879C451.54 53.6467 452.361 51.0585 452.948 48.9408C456.47 47.6467 459.991 46.2349 463.512 44.8232C469.381 42.5879 473.137 40.8232 475.484 39.2938C474.663 40.9408 473.841 43.0585 472.902 45.5291C472.55 46.5879 470.789 51.1761 467.737 59.4114C464.92 67.0585 462.925 72.3526 461.751 75.5291C460.93 76.1173 460.226 76.8232 459.521 77.5291C458.465 78.7055 457.761 79.7644 457.291 80.9408C456.47 83.2938 456.587 85.0585 457.056 86.3526C456.352 88.3526 456 89.7643 455.883 90.8232C455.648 92.5879 456.235 93.7644 456.822 94.3526C457.409 94.9408 458.348 95.7644 460.108 95.7644C462.925 95.7644 465.273 94.5879 467.151 92.3526C467.737 91.6467 468.207 90.8232 468.794 89.7644L475.249 92.8232C479.71 94.8232 483.114 95.7644 485.813 95.7644C487.809 95.7644 489.569 94.9408 490.86 93.2938C491.447 92.5879 491.917 91.5291 492.386 90.1173C492.856 88.9408 493.325 85.882 488.63 83.6467L488.395 83.5291C486.752 82.8232 485.109 82.2349 483.583 81.6467L475.836 78.1173C477.127 76.9408 478.771 75.5291 480.766 73.7644C486.165 69.1761 490.508 65.0585 494.499 60.8232Z" fill="white"/>
<path d="M556.003 62.9418L556.12 62.7065C558.468 56.3535 557.764 50.1182 554.008 44.1182C550.017 37.6476 544.266 34.3535 536.754 34.3535C531.354 34.3535 525.134 37.6476 517.739 44.4712C510.11 51.4123 504.593 59.4123 501.541 68.1182C499.311 74.3535 499.429 80.3535 502.011 86.0006C505.415 93.53 511.049 95.177 515.157 95.177C523.021 95.177 531.707 91.177 540.744 83.177C548.608 76.2359 553.538 70.0006 555.768 63.8829C555.651 63.6476 555.886 63.4123 556.003 62.9418ZM517.387 82.8241C516.8 82.8241 515.157 82.8241 513.748 79.4123C512.457 76.2359 512.575 72.5888 514.1 68.3535C515.274 65.0594 518.091 60.8241 522.434 55.7653C527.716 49.7653 532.293 46.7065 536.284 46.7065C537.106 46.7065 539.571 46.7065 542.388 51.53C544.383 54.9417 544.735 58.2359 543.444 61.7653C541.801 66.2359 537.927 70.9418 531.707 75.7653C524.077 81.53 519.734 82.8241 517.387 82.8241Z" fill="white"/>
<path d="M573.14 78.4707C570.792 78.4707 567.506 79.7648 562.811 82.706C556.59 86.4707 555.299 88.4707 554.712 89.8825C553.773 92.5883 554.477 94.353 555.181 95.2942C556.59 97.0589 559.172 97.2942 561.285 97.2942C564.689 97.2942 568.327 96.1177 571.966 93.7648C575.722 91.2942 578.069 88.9413 579.008 86.4707C579.83 84.2354 579.713 82.3531 578.656 80.8236C577.483 79.2942 575.605 78.4707 573.14 78.4707Z" fill="white"/>
<path d="M605.418 3.05882C605.066 2.11765 604.009 0 600.371 0C597.202 0 594.385 2.94118 590.863 9.88235C588.281 15.2941 585.699 20.8235 583.234 26.2353L576.661 40.3529C571.731 51.2941 568.327 58.7059 566.332 62.4706C565.98 63.0588 565.628 63.8824 565.276 64.9412C564.571 67.0588 564.454 68.7059 565.041 70.1176C565.51 71.1765 566.684 73.0588 570.323 73.0588C575.253 73.0588 579.126 70.5882 581.356 65.8823C585.229 58.2353 588.046 52.5882 589.572 48.9412C591.215 45.2941 593.093 40.3529 595.206 34.3529L604.479 9.05882C604.479 8.94118 604.596 8.70588 604.948 8.11765L605.066 7.76471C605.77 5.88235 605.887 4.35294 605.418 3.05882Z" fill="white"/>
<path d="M69.1335 15.0592C68.0771 18.0003 64.0863 20.3533 57.2786 22.118C56.3396 22.3533 50.7057 23.6474 40.3767 25.8827C38.7335 30.3533 36.5033 38.0003 33.8037 48.4709C32.2779 54.2356 31.1041 58.3533 30.0477 61.1768C28.7566 64.7062 27.4655 68.9415 26.2918 73.8827C25.118 78.7062 23.9443 83.765 22.6531 89.0592C21.9489 91.0592 21.1273 92.4709 20.3057 93.2945C19.484 94.118 18.1929 94.4709 16.4323 94.4709C13.7327 94.4709 12.7937 91.6474 13.8501 85.8827C14.0848 84.5886 15.3759 79.4121 17.7234 70.4709C20.0709 61.5298 21.9489 54.5886 23.24 49.6474C25.5875 40.7062 27.7002 33.765 29.4609 28.9415C19.3667 31.5298 13.8501 32.9415 13.1458 33.1768C9.38982 34.118 6.92496 34.5886 5.75121 34.5886C4.46009 34.5886 3.63847 34.3533 3.16897 33.765C2.69948 33.2945 2.81685 32.118 3.40372 30.4709C4.22534 28.3533 7.51183 26.118 13.4979 24.0003C16.1975 22.9415 21.5968 21.4121 29.6956 19.1768C34.3906 17.765 40.9636 16.118 49.6493 14.2356C58.335 12.3533 63.2647 11.4121 64.6732 11.4121H66.1991C67.4902 11.4121 68.4292 11.6474 69.0161 12.118C69.7203 12.4709 69.7203 13.5298 69.1335 15.0592Z" fill="#DD1E25"/>
<path d="M90.848 36.4697C89.909 38.9403 87.5615 42.2344 83.6881 46.352C81.1059 49.0579 77.2325 52.705 72.3028 57.0579C69.2511 59.6461 66.3167 62.2344 63.265 64.8226C64.0866 64.5873 64.7908 64.4697 65.4951 64.352C66.1993 64.2344 67.0209 64.1167 68.0773 64.1167C70.1901 64.1167 72.068 64.8226 73.4765 66.2344C75.4719 68.2344 75.824 70.9403 74.5329 74.2344C73.5939 76.9403 70.4248 80.5873 65.0256 85.0579C59.1569 89.9991 54.3445 92.4697 50.8233 92.4697C50.3538 92.4697 50.0016 92.352 49.6495 91.9991C49.18 91.5285 49.0626 90.8226 49.5321 89.7638C50.0016 88.5873 50.7059 87.6461 51.7623 86.8226C52.8186 85.9991 54.2271 85.5285 55.8704 85.2932C57.5136 85.0579 59.8611 83.8814 62.7955 81.5285C66.0819 78.9403 68.0773 76.4697 69.0163 73.9991C69.7206 71.9991 68.7816 70.9403 65.9646 70.9403C63.6171 70.9403 60.9175 71.6461 57.9831 72.9403C55.6356 74.1167 53.6403 75.0579 52.2318 75.7638C51.6449 77.2932 50.5885 81.1756 48.9453 87.4109C47.302 93.6461 46.2457 97.1756 46.0109 98.1167C45.6588 99.1756 45.0719 99.8814 44.2503 100.47C43.4287 101.058 42.7244 101.293 41.7854 101.293C40.8464 101.293 40.1422 100.823 39.6727 99.7638C39.2032 98.705 39.2032 97.5285 39.6727 96.2344C40.0248 95.1756 41.1986 91.7638 43.3113 85.7638C45.3067 79.7638 48.0063 72.352 51.2928 63.4109L57.2789 48.2344C56.692 48.352 56.2225 48.4697 55.9877 48.4697C53.875 48.4697 53.1708 47.6461 53.7576 45.9991C53.9924 45.2932 55.8704 43.5285 59.2742 40.8226C63.3823 37.4108 67.4904 34.705 71.5986 32.5873C77.1152 29.7638 82.0449 28.2344 86.3877 28.2344C88.3831 28.2344 89.909 29.1756 90.9653 30.9403C91.6696 32.5873 91.6696 34.352 90.848 36.4697ZM84.3924 37.7638C84.6271 37.0579 84.6271 36.4697 84.3924 35.8814C84.1576 35.2932 83.6881 34.9403 82.9839 34.9403C80.2843 34.9403 77.3499 35.7638 74.1808 37.2932C71.0117 38.8226 67.8426 41.0579 64.6735 43.8814C63.9692 45.2932 63.3823 46.5873 62.9128 47.9991C62.4433 49.2932 61.9738 50.5873 61.6217 51.7638C61.1522 52.9403 60.8001 53.9991 60.5653 55.0579L57.0441 64.2344C59.7437 62.1167 62.9128 59.4108 66.4341 56.2344C71.3638 51.8814 75.2372 48.4697 77.9368 45.6461C81.6928 41.7638 83.9229 39.1756 84.3924 37.7638Z" fill="#DD1E25"/>
<path d="M132.516 62.942C130.52 68.4714 125.825 74.4714 118.313 81.0596C109.745 88.589 101.881 92.3537 94.6038 92.3537C89.9088 92.3537 86.3876 89.8832 84.1574 84.8243C81.9273 79.8832 81.6926 74.589 83.6879 69.0596C86.7397 60.7067 91.9042 53.2949 99.1814 46.589C105.989 40.3537 111.623 37.2949 116.201 37.2949C122.656 37.2949 127.586 40.1184 130.99 45.6479C134.159 50.942 134.863 56.2361 132.868 61.7655C132.868 62.2361 132.633 62.7067 132.516 62.942ZM125.825 62.4714C127.351 58.1185 126.999 54.0008 124.534 49.7655C122.069 45.6479 119.252 43.5302 115.966 43.5302C111.154 43.5302 105.754 46.942 100.003 53.6479C95.4254 58.942 92.3737 63.4126 91.0825 67.1773C89.3219 72.1185 89.2045 76.4714 90.7304 80.3537C92.1389 83.8832 94.2516 85.6479 97.0686 85.6479C101.059 85.6479 106.459 83.0596 113.149 77.7655C119.722 72.589 124.065 67.5302 125.825 62.4714Z" fill="#DD1E25"/>
<path d="M177.001 50.1184C174.418 57.2949 169.606 63.6479 162.681 69.0596C159.629 71.5302 154.113 74.8243 146.248 79.1773C145.779 80.942 145.192 82.942 144.723 85.2949C144.136 87.6479 143.666 90.0008 143.197 92.2361C142.845 93.1773 142.14 94.1184 141.084 94.942C140.028 95.7655 138.971 96.2361 138.032 96.2361C136.506 96.2361 136.624 92.3537 138.384 84.589C139.676 79.0596 140.497 75.2949 141.084 73.2949C141.553 71.2949 142.375 67.5302 143.431 62.0008C144.136 58.3537 144.84 55.5302 145.544 53.6479C142.845 53.0596 141.906 52.0008 142.375 50.4714C142.61 49.8832 143.314 48.942 144.605 47.6479C145.896 46.3537 146.953 45.4126 148.009 44.8243C148.126 43.8832 148.361 43.0596 148.713 42.1184C149.183 40.942 149.652 40.1185 150.239 39.4126C150.826 38.7067 151.648 38.3537 152.587 38.2361C153.526 38.1185 154.113 38.4714 154.23 39.2949C154.23 40.4714 154.23 41.4126 154.23 42.1184C158.69 39.5302 161.507 38.0008 162.564 37.5302C165.967 36.0008 169.606 35.2949 173.245 35.2949C176.179 35.2949 177.94 36.8243 178.527 40.0008C178.761 42.942 178.292 46.2361 177.001 50.1184ZM170.31 50.589C171.132 48.2361 171.367 46.1184 171.015 44.4714C170.545 42.8243 169.489 42.0008 167.728 42.0008C164.911 42.0008 162.211 42.7067 159.512 44.1185C158.808 44.4714 156.577 46.0008 152.821 48.589C151.765 53.0596 150.826 57.5302 149.77 62.1184C148.713 66.7067 148.126 70.2361 147.892 72.589C155.052 68.942 159.864 65.8832 162.094 63.6479C165.733 60.1184 168.432 55.7655 170.31 50.589Z" fill="#DD1E25"/>
<path d="M227.706 38.2346C227.12 39.764 224.889 44.9405 220.899 53.8817C216.908 62.8228 214.443 68.5875 213.504 71.1758C212.8 72.9405 212.096 75.2934 211.039 78.117C210.1 80.9405 209.044 83.9993 207.988 87.2934C206.227 92.1169 204.232 94.4699 202.001 94.4699C200.828 94.4699 200.123 94.117 199.889 93.2934C199.537 92.5875 199.771 91.2934 200.358 89.5287C201.062 87.1758 201.767 84.7052 202.471 82.3522C203.175 79.8817 203.997 77.6464 204.701 75.6464C205.523 73.4111 206.814 70.2346 208.457 66.2346C210.218 62.2346 211.978 58.117 213.856 53.764C213.152 54.5875 210.687 57.1758 206.696 61.764C203.293 65.5287 199.889 69.4111 196.485 73.1758C192.142 78.117 189.09 81.5287 187.447 83.1758C184.395 86.4699 182.4 88.7052 181.461 89.8817C178.761 92.8228 176.649 94.2346 175.005 94.2346C173.597 94.2346 172.775 93.764 172.775 92.9405C172.658 92.117 172.893 90.9405 173.479 89.4111L179.818 71.9993C181.344 67.6464 183.104 62.8228 185.1 57.5287C186.978 52.2346 189.208 46.5875 191.438 40.4699C191.907 39.1758 192.612 38.117 193.433 37.2934C194.255 36.4699 195.428 35.9993 196.954 35.9993C198.011 35.9993 198.598 36.3523 198.715 37.0581C198.95 37.764 198.598 39.2934 197.659 41.764L190.147 62.5875C189.09 65.4111 187.917 68.5875 186.391 72.117C184.982 75.6464 183.691 78.4699 182.752 80.2346C187.095 75.764 193.668 68.4699 202.471 58.3522C211.274 48.2346 216.556 41.764 218.551 38.9405C219.373 37.764 220.547 36.8228 222.073 36.117C223.598 35.4111 225.007 35.1758 226.298 35.1758C227.941 35.2934 228.411 36.2346 227.706 38.2346Z" fill="#DD1E25"/>
<path d="M273.718 38.8231C273.013 40.8231 270.196 42.4701 265.384 43.7642C264.68 43.9995 260.806 44.8231 253.529 46.4701C252.355 49.6466 250.829 54.9407 248.951 62.3525C247.895 66.3525 247.073 69.2937 246.369 71.176C245.43 73.6466 244.609 76.5878 243.787 79.9995C242.965 83.4113 242.144 86.9407 241.205 90.7054C240.735 92.1172 240.148 93.176 239.562 93.6466C238.975 94.2348 238.036 94.4701 236.862 94.4701C234.984 94.4701 234.397 92.4701 234.984 88.4701C235.101 87.5289 236.04 83.9995 237.684 77.6466C239.327 71.2937 240.618 66.4701 241.557 63.0584C243.2 56.8231 244.726 51.9995 245.9 48.5878C238.74 50.4701 234.984 51.4113 234.514 51.5289C231.815 52.2348 230.054 52.4701 229.35 52.4701C228.411 52.4701 227.824 52.2348 227.589 51.8819C227.237 51.5289 227.355 50.7054 227.707 49.5289C228.294 47.9995 230.641 46.4701 234.867 44.9407C236.745 44.2348 240.618 43.0584 246.252 41.5289C249.538 40.5878 254.233 39.4113 260.219 38.1172C266.323 36.8231 269.727 36.1172 270.783 36.1172H271.84C272.779 36.1172 273.365 36.2348 273.835 36.5878C274.07 37.0584 274.07 37.7642 273.718 38.8231Z" fill="#DD1E25"/>
<path d="M299.892 66.5878C299.07 68.9407 295.197 73.176 288.272 79.2937C280.877 85.7643 275.008 89.9996 270.548 91.7643C269.609 92.8231 268.435 93.4113 267.144 93.6466C266.205 93.7643 265.501 93.2937 265.149 92.2349C264.797 91.176 264.797 89.9996 265.266 88.7054C267.027 83.176 269.022 77.2937 271.135 70.9407C273.248 64.7054 275.361 58.5878 277.473 52.8231C278.412 50.2348 279.469 47.6466 280.525 45.2937C282.99 39.6466 284.281 36.5878 284.516 35.8819C285.103 34.5878 285.689 33.6466 286.276 33.0584C286.863 32.3525 287.685 32.1172 288.741 32.1172C290.737 32.1172 291.441 32.8231 290.854 34.3525C290.502 35.176 289.915 37.0584 288.741 39.7642C287.685 42.5878 286.746 45.0584 285.924 47.176L281.464 59.4113C286.628 57.4113 290.619 56.4701 293.671 56.4701C295.784 56.4701 297.662 57.176 299.07 58.5878C300.831 60.4701 301.183 63.176 299.892 66.5878ZM292.38 67.0584C292.849 65.8819 292.967 64.9407 292.732 64.2348C292.497 63.529 291.676 63.176 290.384 63.176C288.154 63.176 286.511 63.4113 285.337 63.7643C284.164 64.1172 282.051 65.0584 278.999 66.4701L273.365 84.2348C277.825 81.0584 281.347 78.3525 284.164 76.1172C288.859 72.1172 291.676 69.176 292.38 67.0584Z" fill="#DD1E25"/>
<path d="M374.542 90.1172C373.955 91.2936 373.486 91.9995 373.368 92.2348C372.781 92.8231 371.96 93.0584 370.786 93.0584C369.378 93.0584 368.439 92.2348 367.969 90.5878C367.617 89.4113 367.5 87.5289 367.5 84.8231C367.617 81.5289 367.617 79.176 367.617 77.5289C367.617 74.8231 367.734 72.8231 367.852 71.6466C367.969 68.8231 368.321 65.2937 368.673 61.2937C369.025 57.2937 369.495 53.0584 369.964 48.7054C364.917 56.3525 360.692 62.8231 357.171 68.2348C353.649 73.5289 350.48 78.5878 347.546 83.2937C346.607 84.8231 345.668 86.2348 344.729 87.7642C343.321 89.9995 342.147 92.5878 341.208 95.2936C340.973 96.1172 340.386 96.7054 339.447 97.0584C338.626 97.4113 337.687 97.6466 336.513 97.6466C335.574 97.6466 334.987 97.2936 334.987 96.4701C334.87 95.6466 335.104 94.5878 335.574 93.176C335.926 92.1172 339.095 86.8231 345.081 77.2936C351.654 66.8231 357.523 57.7642 362.922 49.8819C365.739 45.7642 368.791 41.529 371.96 37.2937C374.542 33.8819 376.42 32.1172 377.359 32.1172C378.063 32.1172 378.415 32.7054 378.415 33.7642C378.415 34.8231 378.415 36.4701 378.181 38.5878C377.359 45.4113 376.655 52.3525 375.833 59.176C375.598 65.6466 375.481 72.1172 375.246 78.4701C375.246 85.4113 375.012 89.2936 374.542 90.1172Z" fill="#DD1E25"/>
<path d="M420.553 81.2955C419.849 83.0602 415.388 86.119 406.937 90.3543C398.486 94.5896 392.618 96.7073 389.097 96.7073C388.158 96.7073 387.571 96.3543 387.336 95.5308C386.984 94.8249 387.101 93.8837 387.453 92.9426C387.805 91.8837 388.392 91.1779 389.214 90.5896C389.918 88.8249 390.505 86.8249 391.092 84.7073C391.679 82.5896 392.5 79.1779 393.674 74.472C394.848 69.7661 395.904 65.6484 396.961 61.8837C398.017 58.2367 398.956 54.9426 399.778 52.119C398.956 52.3543 398.369 52.119 397.9 51.5308C397.43 50.8249 397.43 50.119 397.782 49.0602C398.134 48.119 398.721 47.4131 399.543 46.8249C400.012 46.472 401.069 46.0014 402.595 45.2955C403.299 43.1779 404.238 41.5308 405.177 40.3543C406.116 39.1778 407.055 38.5896 407.994 38.5896C408.815 38.5896 409.285 38.9426 409.52 39.6484C409.754 40.3543 409.52 41.4131 409.05 43.0602C409.637 42.8249 414.449 41.0602 423.605 37.5308C426.774 36.3543 428.652 35.7661 429.473 35.7661C430.06 35.7661 430.53 35.6484 430.882 35.6484C431.821 35.6484 432.408 35.7661 432.877 36.119C433.347 36.472 433.347 37.0602 432.995 38.0014C432.29 39.7661 427.478 42.472 418.558 45.8837C414.567 47.4131 410.693 48.9426 406.703 50.472C405.529 53.7661 404.59 56.5896 404.003 58.9426C403.299 62.3543 402.595 65.1779 402.008 67.4131C404.942 66.2367 408.581 64.8249 412.924 63.4131C417.266 61.8837 419.849 61.1779 420.553 61.1779C421.257 61.1779 421.609 61.4131 421.844 62.0014C422.079 62.5896 422.079 63.1779 421.844 63.7661C421.375 65.1779 418.088 67.2955 412.219 70.0014C408.463 71.7661 404.355 73.4131 399.895 75.0602C399.543 76.5896 399.308 77.8837 398.956 78.9426C398.017 82.9426 397.195 86.119 396.374 88.3543C397.782 88.0014 399.543 87.2955 401.773 86.3543C404.355 85.1779 406.468 84.3543 407.876 83.6484C410.811 82.2367 412.924 81.2955 414.332 80.7073C416.797 79.6484 418.44 79.1779 419.144 79.1779C420.67 79.1779 421.022 79.8837 420.553 81.2955Z" fill="#DD1E25"/>
<path d="M477.479 33.6473C476.775 35.412 471.963 38.1179 463.042 41.5296C459.052 43.0591 455.178 44.5885 451.188 46.1179C450.366 48.4708 449.427 51.5296 448.488 55.2943C446.141 64.8238 444.262 71.412 442.971 74.9414C441.915 78.0002 440.624 81.7649 439.215 86.3532C437.807 90.9414 437.103 93.2943 436.985 93.412C436.633 94.4708 436.164 95.1767 435.459 95.7649C434.755 96.3532 433.934 96.5885 432.76 96.5885C431.821 96.5885 431.234 96.2355 430.999 95.6473C430.647 95.0591 430.647 94.2355 430.999 93.2943L432.525 88.9414C433.699 85.7649 434.52 83.1767 435.107 81.2943C435.694 79.412 436.281 77.1767 436.985 74.3532C437.69 71.5296 438.746 67.6473 440.272 62.4708C441.798 57.2943 443.206 52.3532 444.615 47.5296C443.793 47.7649 443.206 47.6473 442.619 46.9414C442.15 46.3532 442.032 45.5296 442.267 44.5885C442.384 43.6473 442.971 42.9414 443.91 42.2355C444.497 41.7649 445.554 41.2943 447.079 40.5885C447.784 38.4708 448.723 36.8238 449.662 35.6473C450.601 34.4708 451.54 33.8826 452.479 33.8826C453.3 33.8826 453.77 34.2355 454.005 34.9414C454.239 35.6473 454.005 36.7061 453.535 38.3532C454.122 38.1179 458.934 36.3532 468.09 32.8238C471.259 31.6473 473.137 31.0591 473.958 31.0591C474.545 31.0591 475.015 30.9414 475.367 30.9414C476.306 30.9414 476.893 31.0591 477.362 31.412C477.832 32.1179 477.832 32.7061 477.479 33.6473Z" fill="#DD1E25"/>
<path d="M490.273 88.7064C489.804 89.8829 489.452 90.5888 489.1 91.177C488.395 92.1182 487.456 92.4711 486.4 92.4711C484.17 92.4711 481.118 91.53 477.01 89.7653C473.958 88.3535 470.907 86.9417 467.855 85.4123C467.033 87.6476 466.329 89.177 465.507 90.1182C464.216 91.6476 462.69 92.4711 460.695 92.4711C459.639 92.4711 459.169 91.8829 459.286 90.8241C459.404 89.7653 459.991 88.0006 460.812 85.7653C459.991 84.7064 459.991 83.2947 460.695 81.53C460.93 80.7064 461.517 80.0006 462.338 79.0594C463.16 78.2359 463.981 77.53 464.803 76.8241C465.859 73.8829 467.972 68.2359 471.024 60.0006C474.076 51.7653 475.836 47.0594 476.188 46.1182C477.48 42.7065 478.536 40.1182 479.592 38.3535C480.649 36.5888 481.588 35.7653 482.409 35.7653C483.466 35.7653 484.053 36.1182 484.287 36.9417C484.522 37.7653 484.17 39.53 483.114 42.2359C481.822 45.7653 480.414 49.7653 478.771 54.3535C477.127 58.9417 475.367 63.8829 473.371 69.53C476.306 67.177 479.123 64.8241 481.705 62.2359C483.818 60.2359 486.283 57.6476 489.1 54.4712C491.917 51.2947 494.381 48.3535 496.377 45.8829C498.372 43.2947 499.546 41.53 499.898 40.4712C500.602 38.5888 501.424 37.177 502.598 36.0006C503.771 34.8241 504.828 34.3535 505.884 34.3535C507.88 34.3535 508.349 35.7653 507.293 38.5888C506.354 41.177 504.593 44.2359 501.776 47.8829C499.076 51.53 495.907 55.177 492.269 59.0594C488.278 63.2947 484.052 67.4123 479.358 71.4123C474.78 75.53 471.963 77.8829 471.141 78.7064L482.996 84.1182C484.639 84.8241 486.283 85.4123 487.926 86.1182C489.921 86.7064 490.625 87.6476 490.273 88.7064Z" fill="#DD1E25"/>
<path d="M552.951 62.942C550.956 68.4714 546.261 74.4714 538.749 81.0596C530.181 88.589 522.317 92.3537 515.039 92.3537C510.344 92.3537 506.823 89.8832 504.593 84.8243C502.363 79.8832 502.128 74.589 504.124 69.0596C507.175 60.7067 512.34 53.2949 519.617 46.589C526.425 40.3537 532.059 37.2949 536.636 37.2949C543.092 37.2949 548.022 40.1184 551.425 45.6479C554.595 50.942 555.299 56.2361 553.303 61.7655C553.186 62.2361 552.951 62.7067 552.951 62.942ZM546.144 62.4714C547.669 58.1185 547.317 54.0008 544.853 49.7655C542.388 45.6479 539.571 43.5302 536.284 43.5302C531.472 43.5302 526.073 46.942 520.321 53.6479C515.744 58.942 512.692 63.4126 511.401 67.1773C509.64 72.1185 509.523 76.4714 511.049 80.3537C512.457 83.8832 514.57 85.6479 517.387 85.6479C521.378 85.6479 526.777 83.0596 533.467 77.7655C540.158 72.589 544.383 67.5302 546.144 62.4714Z" fill="#DD1E25"/>
<path d="M576.192 85.5301C575.487 87.4124 573.609 89.4124 570.323 91.4124C567.154 93.4124 564.102 94.4713 561.168 94.4713C559.172 94.4713 557.881 94.1183 557.412 93.5301C556.942 92.9419 556.942 92.0007 557.412 90.8242C557.881 89.5301 560.111 87.6477 564.219 85.1772C568.327 82.7066 571.262 81.4124 573.022 81.4124C576.192 81.4124 577.131 82.8242 576.192 85.5301ZM601.779 8.00069L592.624 33.2948C590.511 39.2948 588.633 44.1183 586.99 47.6477C585.464 51.2948 582.647 56.8242 578.891 64.4713C577.131 68.236 574.314 70.1183 570.44 70.1183C569.032 70.1183 568.093 69.7654 567.858 69.0595C567.623 68.3536 567.623 67.2948 568.21 65.883C568.562 64.9419 568.797 64.236 569.032 63.883C571.027 60.0007 574.548 52.4713 579.478 41.5301C580.3 39.883 582.412 35.1772 585.934 27.4125C588.398 22.0007 590.981 16.4713 593.563 11.0595C596.38 5.64775 598.727 2.82422 600.488 2.82422C601.779 2.82422 602.483 3.17716 602.718 3.88304C602.953 4.58892 602.836 5.5301 602.366 6.70657C602.131 7.29481 601.897 7.64775 601.779 8.00069Z" fill="#DD1E25"/>
</g>
<defs>
<clipPath id="clip0">
<rect width="608" height="108" fill="white"/>
</clipPath>
</defs>
</svg>
