<svg width="100" height="100" viewBox="0 0 100 100" fill="none" xmlns="http://www.w3.org/2000/svg">
<rect width="100" height="100" fill="white"/>
<circle cx="50" cy="50" r="49" stroke="#779BAB" stroke-width="2"/>
<path d="M36.5844 78.0893C39.949 79.457 44.588 80.5084 50.703 80.5084C52.1283 80.5084 53.4713 80.4365 54.7349 80.3044M36.5844 78.0893C32.9804 76.6242 30.8386 74.7964 29.9115 73.5094C29.7927 73.3444 29.7401 73.1444 29.755 72.9416C30.063 68.7652 33.0988 60.3198 42.4205 58.0417C42.7243 57.9674 43.0453 58.0507 43.2935 58.241C44.7561 59.3621 47.7667 61.082 50.703 60.8863C52.3323 60.7776 53.9387 60.2072 55.2797 59.5423M36.5844 78.0893C44.3417 76.2077 58.9411 69.8641 55.2797 59.5423M55.2797 59.5423C56.2915 59.0406 57.1523 58.485 57.7579 58.0333C58.0545 57.8121 58.4452 57.744 58.7815 57.8984C59.4353 58.1985 60.1578 58.5923 60.9173 59.0664M60.9173 59.0664C64.8514 61.5219 69.7779 66.1295 71.2963 71.0146C71.3672 71.2426 71.3478 71.4877 71.2337 71.6976C69.7228 74.479 64.6963 79.2626 54.7349 80.3044M60.9173 59.0664C62.7989 63.3897 64.1966 73.69 54.7349 80.3044M48.015 55.7791C50.9505 56.7576 56.5353 56.853 60.298 48.1744C60.3514 48.0513 60.3797 47.9163 60.3797 47.7821C60.3797 46.1099 60.3797 42.2823 60.3797 36.9633M41.5639 49.328L40.0936 46.8775C40.0004 46.7221 39.9511 46.5443 39.9511 46.363V38.8449M36.7255 47.984V37.8765C36.7255 37.3593 36.3303 36.9212 35.8141 36.954C33.7429 37.0854 30.812 38.2602 30.812 42.3393C30.812 47.0701 34.7544 48.0736 36.7255 47.984ZM36.7255 47.984C37.1735 49.5968 38.6071 52.8223 42.1015 52.8223M42.1015 52.8223C42.1015 51.4863 43.1846 50.4032 44.5207 50.4032C45.8567 50.4032 46.9398 51.4863 46.9398 52.8223C46.9398 54.1584 45.8567 55.2415 44.5207 55.2415C43.1846 55.2415 42.1015 54.1584 42.1015 52.8223ZM46.399 26.749C47.49 26.4113 48.7401 26.2114 50.1654 26.2114C56.9411 26.2114 59.7554 30.7288 60.3534 33.0914C60.3719 33.1648 60.3797 33.2384 60.3797 33.3141C60.3797 34.5956 60.3797 35.8143 60.3797 36.9633M46.399 26.749C42.3043 28.0165 40.4501 31.2249 39.9776 33.0906C39.959 33.164 39.9511 33.2384 39.9511 33.3141V38.8449M46.399 26.749C45.2353 28.3618 43.9293 32.6626 45.8646 35.8881M45.8646 35.8881C48.2838 39.9201 58.7669 38.8449 60.3797 36.9633M45.8646 35.8881C44.2519 35.6193 41.0263 36.2644 39.9511 38.8449M45.5958 43.1457H48.015M53.391 43.1457H55.8101M43.4455 24.3299C43.4455 24.3299 45.2626 23.6798 45.8646 22.7171C46.5348 21.6453 46.1334 19.4915 46.1334 19.4915C46.1334 19.4915 43.4158 20.0061 42.9079 21.3731C42.4991 22.4732 43.4455 24.3299 43.4455 24.3299ZM39.5 21C39.5 21 37.188 22.7333 37.122 24.3299C37.0467 26.1494 39.8759 28.093 39.8759 28.093C39.8759 28.093 40.5992 25.8147 40.4887 24.3299C40.3881 22.9771 39.5 21 39.5 21ZM32.6936 25.6738C32.6936 25.6738 31.3239 28.9563 32.156 30.781C33.0277 32.6925 36.6504 33.7378 36.6504 33.7378C36.6504 33.7378 36.9358 30.7985 36.1879 29.1682C35.3833 27.4141 32.6936 25.6738 32.6936 25.6738ZM69.7876 42.3393C69.7876 46.5157 66.5504 47.602 64.8663 47.8846C64.3216 47.976 63.874 47.5363 63.874 46.984V37.9633C63.874 37.411 64.3215 36.9708 64.8668 37.058C66.5511 37.3273 69.7876 38.3622 69.7876 42.3393Z" stroke="#6DD1FF" stroke-width="2" stroke-linecap="round" stroke-linejoin="round"/>
<path d="M54.466 22.7171C55.068 23.6798 56.8852 24.3299 56.8852 24.3299C56.8852 24.3299 57.8316 22.4732 57.4228 21.3731C56.9149 20.0061 54.1972 19.4915 54.1972 19.4915C54.1972 19.4915 53.7958 21.6453 54.466 22.7171Z" stroke="#6DD1FF" stroke-width="2" stroke-linecap="round" stroke-linejoin="round"/>
<path d="M63.2087 24.3299C63.0757 22.9939 61.4548 21.3731 61.4548 21.3731C61.4548 21.3731 59.966 23.0204 59.842 24.3299C59.6912 25.9216 61.4548 28.093 61.4548 28.093C61.4548 28.093 63.3694 25.9433 63.2087 24.3299Z" stroke="#6DD1FF" stroke-width="2" stroke-linecap="round" stroke-linejoin="round"/>
<path d="M68.1747 30.781C68.9782 28.9435 67.6371 25.6738 67.6371 25.6738C67.6371 25.6738 64.744 27.3344 64.1427 29.1682C63.5829 30.8756 64.6803 33.7378 64.6803 33.7378C64.6803 33.7378 67.4585 32.4189 68.1747 30.781Z" stroke="#6DD1FF" stroke-width="2" stroke-linecap="round" stroke-linejoin="round"/>
</svg>
