<svg width="24" height="24" viewBox="0 0 24 24" fill="none" xmlns="http://www.w3.org/2000/svg">
<g clip-path="url(#clip0)">
<path fill-rule="evenodd" clip-rule="evenodd" d="M12 3.36364C12.6527 3.36364 13.1818 2.83452 13.1818 2.18182C13.1818 1.52912 12.6527 1 12 1C11.3473 1 10.8181 1.52912 10.8181 2.18182C10.8181 2.83452 11.3473 3.36364 12 3.36364ZM14.1818 2.18182C14.1818 3.21476 13.464 4.08005 12.4999 4.30608V5.1039C17.4891 5.36386 21.4545 9.49157 21.4545 14.5455C21.4545 19.7671 17.2216 24 12 24C6.77835 24 2.54541 19.7671 2.54541 14.5455C2.54541 9.49158 6.51078 5.36387 11.4999 5.10391V4.30607C10.5359 4.08004 9.81814 3.21476 9.81814 2.18182C9.81814 0.976833 10.795 0 12 0C13.2049 0 14.1818 0.976833 14.1818 2.18182ZM11.5 8.72728V7.27273H12.5V8.72728H11.5ZM6.55549 9.8081L7.58401 10.8366L8.29112 10.1295L7.2626 9.101L6.55549 9.8081ZM6.18177 15.0455H4.72723V14.0455H6.18177V15.0455ZM19.2727 15.0455H17.8181V14.0455H19.2727V15.0455ZM7.58401 18.2543L6.55549 19.2828L7.2626 19.9899L8.29112 18.9614L7.58401 18.2543ZM17.4444 9.8081L16.4159 10.8366L15.7088 10.1295L16.7373 9.101L17.4444 9.8081ZM12.6125 13.2258L15.2828 10.5555L15.9899 11.2626L13.3196 13.9329C13.4062 14.1191 13.4545 14.3266 13.4545 14.5455C13.4545 15.3488 12.8033 16 12 16C11.1966 16 10.5454 15.3488 10.5454 14.5455C10.5454 13.7421 11.1966 13.0909 12 13.0909C12.2188 13.0909 12.4263 13.1392 12.6125 13.2258ZM17.4444 19.2828L16.4159 18.2543L15.7088 18.9614L16.7373 19.9899L17.4444 19.2828ZM11.5 20.3636V21.8182H12.5V20.3636H11.5ZM20.4545 14.5455C20.4545 19.2148 16.6693 23 12 23C7.33064 23 3.54541 19.2148 3.54541 14.5455C3.54541 9.87614 7.33064 6.09091 12 6.09091C16.6693 6.09091 20.4545 9.87614 20.4545 14.5455Z" fill="#6DD1FF"/>
</g>
<defs>
<clipPath id="clip0">
<rect width="24" height="24" fill="white"/>
</clipPath>
</defs>
</svg>
