<svg width="40" height="40" viewBox="0 0 40 40" fill="none" xmlns="http://www.w3.org/2000/svg">
<circle opacity="0.5" cx="20" cy="20" r="19" stroke="#779BAB" stroke-width="2"/>
<path d="M23.3523 12H16.6477C14.085 12 12 14.085 12 16.6477V23.3523C12 25.915 14.085 28 16.6477 28H23.3523C25.915 28 28 25.915 28 23.3523V16.6477C28 14.085 25.915 12 23.3523 12ZM26.75 23.3523C26.75 25.2258 25.2258 26.75 23.3523 26.75H16.6477C14.7742 26.75 13.25 25.2258 13.25 23.3523V16.6477C13.25 14.7742 14.7742 13.25 16.6477 13.25H23.3523C25.2258 13.25 26.75 14.7742 26.75 16.6477V23.3523Z" fill="#6DD1FF"/>
<path d="M19.9999 16.3077C17.964 16.3077 16.3076 17.964 16.3076 20C16.3076 22.0359 17.964 23.6923 19.9999 23.6923C22.0359 23.6923 23.6922 22.0359 23.6922 20C23.6922 17.964 22.0359 16.3077 19.9999 16.3077Z" fill="#6DD1FF"/>
<path d="M24.3752 17.0577C25.0921 17.0577 25.6733 16.4765 25.6733 15.7596C25.6733 15.0427 25.0921 14.4615 24.3752 14.4615C23.6583 14.4615 23.0771 15.0427 23.0771 15.7596C23.0771 16.4765 23.6583 17.0577 24.3752 17.0577Z" fill="#6DD1FF"/>
</svg>
