<svg width="441" height="96" viewBox="0 0 441 96" fill="none" xmlns="http://www.w3.org/2000/svg">
<path d="M59.7566 18.769L61.47 10.4506L58.4715 5.97151L38.5526 5.54492L36.4108 15.7829C34.9115 16.2095 32.9838 16.6361 31.0562 17.276C21.2039 20.2621 14.1359 23.6748 9.63804 27.9406C5.14023 32.2064 2.99841 36.8989 2.99841 42.0179C2.99841 52.0426 10.9231 63.5604 23.5599 75.2915L17.7769 85.7428L20.7755 90.2219L43.4787 95.1276L46.0489 82.7567C49.2617 81.6902 55.0446 79.5573 60.8275 76.1446C75.1776 68.2528 80.9605 59.2945 80.9605 50.3363C81.1747 39.2451 72.1791 28.1539 59.7566 18.769ZM28.486 50.3363C26.7726 48.2033 25.4875 46.0704 25.4875 43.2976C25.4875 42.871 25.4875 42.2312 25.7017 41.5913C25.7017 41.378 25.9159 40.9514 26.5584 40.7381C27.6293 39.6717 29.9853 38.6052 31.2704 38.1786L28.486 50.3363ZM58.4715 48.2033C57.8289 51.616 55.2587 53.3224 52.2602 55.0287L54.8304 42.871C55.4729 43.5109 56.1155 44.3641 56.758 45.2173C57.8289 46.2837 58.4715 47.5635 58.4715 48.2033Z" fill="#407ABE"/>
<path d="M195.976 21.7547L192.764 17.4888L140.503 14.2894L136.862 25.5939L128.081 8.53056H127.866C126.796 8.10397 123.583 7.03751 122.94 6.82422H122.726C107.305 12.7964 87.8145 24.7408 82.8883 41.8041C82.6741 43.0839 82.46 44.3636 82.46 45.8567C82.46 59.2941 96.596 72.5182 105.806 85.1024L111.16 86.5955L134.078 73.3714L126.367 68.2523C122.726 65.4795 117.157 61.6403 114.373 57.801L130.865 59.2941L132.793 38.818L129.366 34.5522L116.301 36.0452C120.37 34.3389 124.654 32.8459 128.937 31.7794L135.577 29.8598L134.506 33.0592L137.933 37.325H138.147C138.147 37.325 148 38.3915 154.639 39.0313L154.211 42.2307L152.069 58.2276L145.429 81.0499L148.856 85.3157L171.345 88.0885L177.342 42.2307L193.62 44.3636L195.976 21.7547Z" fill="#407ABE"/>
<path d="M324.485 24.3148L324.699 24.1016L309.707 7.03818L304.352 6.6116L288.717 23.4617L290.859 14.93L287.432 10.6642L268.155 12.1572L257.446 69.7461L233.886 3.62551L228.746 1.2793L203.258 49.27L192.121 47.3504L183.982 64.4138L185.053 68.6796L184.624 69.1062H184.41V69.3195L185.481 74.4385L204.543 86.8094L212.896 73.5853L234.315 77.2113L236.242 87.4493L241.168 89.7955L262.158 82.117L261.516 80.4107L282.505 82.7569L284.433 67.8264C290.43 76.3581 300.925 90.0088 300.925 90.0088L306.28 90.862L323.414 78.0645L299.212 43.5111C308.207 37.3257 324.485 24.3148 324.485 24.3148Z" fill="#407ABE"/>
<path d="M408.873 2.5591L403.732 0.212891L378.245 48.2036L367.107 46.284L358.968 63.3474L359.611 66.3335C357.683 63.9872 354.899 60.148 352.115 56.0954C349.116 51.403 346.332 46.284 346.332 43.0846C346.332 42.4447 346.546 41.8049 346.76 41.165C347.617 39.0321 350.187 37.539 353.828 36.2593C357.469 34.9795 361.967 33.913 366.251 32.6333L377.174 29.0073L366.465 8.74458L361.11 7.03824L358.54 13.2237C344.618 17.7028 326.627 23.2484 320.844 38.8188C320.202 40.9517 319.987 43.0846 319.987 45.0042C319.987 58.4416 331.339 72.0923 340.549 81.4772V83.8234V84.0367L345.903 85.5297L363.68 75.505L379.53 85.9563L387.883 72.7322L409.087 76.5715L411.015 86.8095L415.941 89.1557L436.931 81.4772L408.873 2.5591Z" fill="#407ABE"/>
<path d="M360.468 72.306L360.682 72.5193L340.763 83.8238L336.694 79.3447C327.484 70.1731 317.203 54.8161 317.203 40.9521C317.203 38.6059 317.417 36.2597 318.06 34.1267C323.843 18.5564 342.048 13.0108 355.97 8.53168L361.539 6.61206L372.248 26.6615L364.323 29.0077C360.254 30.2875 355.756 31.3539 351.686 32.847C347.831 34.34 344.404 36.473 343.119 40.3122C342.905 40.7388 342.691 41.3787 342.691 42.2318C342.691 43.9382 343.333 46.4977 344.404 48.8439C346.974 55.456 354.685 65.2674 358.54 69.7465C359.611 71.4529 360.468 72.306 360.468 72.306ZM319.131 23.8887L319.345 23.6754L304.352 6.61206L286.361 21.1159L287.646 10.8779L264.943 8.31839L256.375 76.1453L279.079 78.7048L281.006 63.7743C288.931 74.8655 300.711 90.0093 300.711 90.0093L300.925 90.2226L318.274 77.425L294.286 42.6584C303.281 36.473 319.131 23.8887 319.131 23.8887ZM192.763 17.49L137.29 10.238L134.292 33.2736H134.506C134.506 33.2736 144.358 34.34 150.998 34.9799L150.57 38.1793L148.428 54.1762L145.001 81.051L167.704 83.8238L173.701 37.966L189.979 40.0989L192.763 17.49ZM126.367 28.5811L133.221 26.6615L122.726 6.61206H122.512C107.305 12.5842 85.2443 19.4096 79.8898 37.3261C79.4614 38.8192 79.4614 40.3122 79.4614 42.0186C79.4614 56.0958 91.4556 72.9459 101.736 81.2643L106.02 85.1036L127.224 72.9459L119.085 67.187C115.444 64.6275 109.233 57.3756 106.448 53.323L127.438 55.2427L129.366 34.34L112.874 32.847C117.372 31.3539 121.869 29.6476 126.367 28.5811ZM228.96 1.06646L257.446 79.9845L236.242 87.6631L230.888 72.9459L210.969 69.5332L203.258 81.6909L184.196 69.3199L186.766 65.2674L183.982 64.8408L187.409 45.2179L198.546 47.1376L228.96 1.06646ZM223.82 46.2844L221.25 51.1901L225.319 51.83L223.82 46.2844ZM78.1763 47.1376C78.1763 55.6692 72.3934 63.9876 58.2574 71.8794C52.2603 75.2921 46.4774 77.425 43.4789 78.4915L40.6945 90.6492L17.7771 85.9567L20.3473 73.5858C7.92472 61.8547 0 49.9104 0 39.0325C0 27.9413 8.56727 18.5564 28.272 12.7975C30.1996 12.1577 32.1273 11.7311 33.6265 11.3045L35.7683 1.06646L58.6858 5.97218L56.544 16.2102C68.9665 25.8083 78.1763 36.2597 78.1763 47.1376ZM53.7596 42.2318C53.1171 41.3787 52.2603 40.5255 51.832 39.8856L49.2618 52.0433C52.0461 50.5502 54.6163 48.6306 55.2589 45.2179V45.0046C55.2589 44.5781 54.6163 43.2983 53.7596 42.2318ZM26.1302 47.1376L28.7003 34.9799C27.4153 35.6198 25.2734 36.6862 23.9883 37.5394C23.56 37.966 23.3458 38.1793 23.1316 38.3926C22.9174 39.0325 22.9174 39.459 22.9174 40.0989C23.1316 42.6584 24.6309 44.7913 26.1302 47.1376ZM432.433 78.9181L411.229 86.5966L405.874 71.8794L385.955 68.4668L378.245 80.6244L359.183 68.2535L361.753 64.2009L358.968 63.7743L362.395 44.1515L373.533 46.2844L403.947 0L432.433 78.9181ZM398.806 45.2179L396.236 50.1236L400.306 50.7635L398.806 45.2179Z" fill="white"/>
<path fill-rule="evenodd" clip-rule="evenodd" d="M106.662 80.4105L104.521 78.4908C104.306 78.2775 79.8896 57.1616 83.9591 38.3919C88.8852 21.3285 117.157 13.0101 117.586 13.0101L121.227 11.5171L127.866 24.3146L125.724 24.9545C125.51 24.9545 102.593 31.14 102.165 36.259C110.089 36.8989 125.51 38.3919 125.51 38.3919L124.011 51.1894C124.011 51.1894 108.376 49.9097 100.665 49.0565C100.023 55.4553 116.515 70.1724 116.943 70.599L119.942 72.7319L106.662 80.4105ZM164.277 79.344L170.274 33.2729L186.552 35.4058L188.266 20.6887L140.717 14.7165L138.79 29.8602C138.79 29.8602 150.355 31.14 155.496 31.3533L149.284 77.851L164.277 79.344ZM304.138 12.157L281.435 30.5001L283.362 14.2899L268.584 12.5836L260.873 72.7319L275.652 74.4383L278.436 52.8958C285.504 64.4135 301.782 85.1029 301.782 85.1029L312.919 76.9978L288.717 42.0179C297.07 36.259 313.562 23.2482 313.562 23.2482L304.138 12.157ZM352.971 69.5326C352.757 69.3193 334.98 48.2033 339.478 39.0318C342.69 29.8602 363.466 25.8077 363.894 25.5944L366.679 24.7412L359.825 11.7304L357.255 12.5836C356.826 12.5836 328.126 18.9823 321.915 35.6191C316.56 53.9622 339.478 76.7845 339.692 76.9978L341.834 79.1307L354.899 71.6655L352.971 69.5326ZM215.681 54.1755L224.891 38.8185L229.174 56.3084L215.681 54.1755ZM202.187 76.1446L209.255 65.2667L233.886 69.5326L238.598 82.7567L252.306 77.851L227.889 9.81076L200.474 51.4027L190.622 49.6964L188.48 61.6407L193.192 62.4939L189.551 68.2528L202.187 76.1446ZM390.667 53.1091L399.877 37.752L404.161 55.242L390.667 53.1091ZM376.96 75.0782L384.028 64.2003L408.658 68.4661L413.37 81.6902L427.078 76.7845L402.876 8.7443L375.46 50.3363L365.608 48.6299L363.466 60.5743L368.178 61.4275L364.537 67.1863L376.96 75.0782ZM49.2616 31.7799C53.7594 36.0457 59.9707 41.5913 58.8998 45.8571C57.4005 52.4692 52.046 54.8154 43.4787 58.868L49.2616 31.7799ZM28.2718 55.8819C22.0606 48.6299 17.9911 44.1508 19.4904 37.752C20.3471 33.4862 28.2718 30.9267 34.0547 28.7938L28.2718 55.8819ZM37.6958 85.9561L40.0518 75.2915C41.7653 74.8649 70.4656 65.9066 74.1067 49.2698C76.8911 36.259 58.0431 21.9684 52.4744 17.7026L54.402 8.7443L39.1951 5.54492L37.2675 14.5032C30.4137 16.2095 7.28204 21.3285 4.49767 34.5527C0.856587 51.1894 23.5598 71.0256 24.8449 72.0921L22.4889 82.7567L37.6958 85.9561Z" fill="#DF231D"/>
</svg>
