<svg width="184" height="33" viewBox="0 0 184 33" fill="none" xmlns="http://www.w3.org/2000/svg">
<path fill-rule="evenodd" clip-rule="evenodd" d="M13.5705 9.63165C17.3924 8.78343 18.0843 8.61826 18.2577 8.57138C20.6535 7.94729 22.026 7.07315 22.4529 5.8985C22.8415 4.83113 22.5048 4.27808 22.1524 4.00032C21.8093 3.73143 21.3547 3.60107 20.7618 3.60107H20.2983C19.9662 3.60107 19.1279 3.70231 15.5645 4.49049C12.9457 5.07018 10.8933 5.57527 9.47785 5.98801C6.9943 6.67177 5.36891 7.15946 4.51004 7.47807C2.36428 8.27017 1.25606 9.03917 0.917196 9.97051C0.791455 10.3154 0.457923 11.2325 1.01026 11.858C1.32496 12.2118 1.79631 12.3837 2.45024 12.3837C2.7344 12.3837 3.26933 12.3326 4.88513 11.9369C4.9622 11.9191 5.17603 11.8705 8.27835 11.0656C7.86205 12.3624 7.39923 13.9573 6.89627 15.8288C6.4924 17.2894 5.94078 19.3449 5.20871 22.1123C4.23334 25.8 4.06213 26.5814 4.01986 26.8425C3.76874 28.3165 3.88666 29.2806 4.39033 29.8773C4.70895 30.2549 5.15508 30.4541 5.68077 30.4541C6.44552 30.4541 7.04474 30.2591 7.46387 29.8745C7.82334 29.5434 8.13236 29.0131 8.40835 28.2551L8.43818 28.1549C8.81221 26.5612 9.17593 25.0313 9.53007 23.5658C9.87354 22.1396 10.2412 20.8854 10.6227 19.8376C10.9327 18.9855 11.3075 17.7089 11.7685 15.935C12.4988 13.1165 13.1037 11.0002 13.5705 9.63165Z" fill="#7584A1"/>
<path fill-rule="evenodd" clip-rule="evenodd" d="M25.1784 12.5419C24.945 12.8498 24.5017 13.367 23.6606 14.2042C22.8557 15.0133 21.6992 16.0715 20.218 17.3537C20.1274 17.4329 20.0383 17.5111 19.9498 17.5882C20.0138 17.3935 20.0852 17.1882 20.1629 16.9747L20.5711 15.853C20.6911 15.5234 20.8321 15.1877 20.9913 14.8535C21.8644 14.0994 22.7278 13.5083 23.5597 13.096C24.1277 12.8143 24.6697 12.6292 25.1784 12.5419ZM19.1415 25.0552C18.1206 25.8636 17.6567 25.989 17.5044 26.0053C17.2483 26.0327 17.0067 26.081 16.7808 26.1502C16.9883 25.405 17.1275 24.9344 17.2213 24.6385C17.6088 24.4471 18.0769 24.2148 18.6122 23.9487C19.3642 23.6109 20.0423 23.4369 20.628 23.4308C20.3666 23.9384 19.8682 24.4829 19.1415 25.0552ZM22.3031 19.709C22.5872 19.4632 22.8735 19.2163 23.1612 18.9681C24.6854 17.6247 25.865 16.5154 26.6699 15.6686C27.9383 14.3245 28.7101 13.244 29.0295 12.366C29.3484 11.4904 29.3246 10.71 28.9531 10.0373C28.4928 9.22849 27.7312 8.78271 26.8102 8.78271C25.3588 8.78271 23.7182 9.25264 21.9351 10.1786C20.6645 10.8351 19.3627 11.7053 18.0691 12.7627C16.476 14.0542 16.2551 14.4094 16.1453 14.7121C15.9112 15.3546 16.0764 15.7954 16.2558 16.0519C16.389 16.2419 16.5662 16.3868 16.7857 16.4859L15.3891 19.9825C14.4024 22.6948 13.5911 24.9731 12.9791 26.7544C12.3525 28.5744 11.9952 29.6041 11.8868 29.9022C11.6062 30.6736 11.7437 31.2636 11.9089 31.6234C12.1923 32.2397 12.7176 32.5931 13.3503 32.5931C13.7907 32.5931 14.2102 32.45 14.5981 32.1665C14.9728 31.8916 15.2495 31.5133 15.4207 31.0431C15.4665 30.9173 15.5493 30.6577 15.7649 29.8844C15.8661 29.9068 15.972 29.9178 16.0807 29.9178C17.3864 29.9178 18.978 29.1168 20.9476 27.469C22.7424 25.9648 23.7448 24.8072 24.1018 23.8265C24.7234 22.119 24.154 21.0605 23.5633 20.4702C23.1971 20.1075 22.7751 19.8532 22.3031 19.709Z" fill="#7584A1"/>
<path fill-rule="evenodd" clip-rule="evenodd" d="M30.0647 26.0541C29.8846 26.0541 29.4065 26.0541 28.9717 25.0074C28.5778 24.0359 28.6126 22.9426 29.0779 21.6642C29.4456 20.6537 30.3002 19.3732 31.6176 17.8579C33.2032 16.0318 34.6091 15.1062 35.7965 15.1062C36.0398 15.1062 36.7797 15.1062 37.6261 16.5497C38.2264 17.5748 38.3323 18.5829 37.9508 19.6311C37.4656 20.9638 36.2672 22.3878 34.3885 23.8633C32.0833 25.6741 30.7648 26.0541 30.0647 26.0541ZM41.7645 20.0648L41.7965 19.988C42.4931 18.0746 42.281 16.1824 41.166 14.3635C39.9704 12.418 38.2079 11.4316 35.9272 11.4316C34.2979 11.4316 32.4171 12.4262 30.1776 14.4721C27.8699 16.5771 26.215 18.9768 25.2588 21.6045C24.5765 23.4786 24.6272 25.2983 25.4097 27.0121C26.4544 29.3017 28.1419 29.7823 29.3734 29.7823C31.7621 29.7823 34.3654 28.5633 37.11 26.16C39.492 24.0774 40.9742 22.1732 41.6413 20.3404C41.6619 20.2843 41.7038 20.1923 41.7645 20.0648Z" fill="#7584A1"/>
<path fill-rule="evenodd" clip-rule="evenodd" d="M46.6125 21.3432C46.6928 20.9344 46.788 20.4811 46.8977 19.9856C47.1783 18.7161 47.4582 17.4694 47.7378 16.2447C49.0275 15.3616 49.334 15.1755 49.4061 15.1364C50.0888 14.7706 50.7641 14.5926 51.4706 14.5926C51.5288 14.5926 51.5608 14.5994 51.5672 14.5972C51.5743 14.6093 51.5885 14.6381 51.6031 14.6924C51.6869 15.015 51.6276 15.4703 51.4315 16.0092C50.909 17.4445 50.1425 18.6621 49.1518 19.6283C48.8165 19.9568 48.1075 20.5003 46.6125 21.3432ZM55.5508 13.0585C55.3242 11.6811 54.4305 10.8911 53.0981 10.8911C51.8663 10.8911 50.6572 11.1426 49.4943 11.6431C49.3277 11.7173 49.0006 11.8782 48.0696 12.3954C47.8579 11.9965 47.4455 11.7493 46.9432 11.7493C46.8775 11.7493 46.8072 11.7532 46.7251 11.7631C46.2332 11.8264 45.8023 12.0523 45.4798 12.4167C45.2237 12.7058 45.0117 13.0777 44.8501 13.5224C44.7808 13.7125 44.7225 13.9043 44.6756 14.0957C44.3915 14.2985 44.0988 14.5557 43.7905 14.8743C43.3049 15.3755 43.0488 15.7232 42.9348 16.0362C42.7885 16.4375 42.8133 16.8514 43.0044 17.2012C43.1394 17.4477 43.3458 17.6506 43.6282 17.8125C43.4911 18.3094 43.3522 18.909 43.2073 19.6233C42.8783 21.2612 42.6372 22.3946 42.4898 22.9917C42.3381 23.6065 42.0685 24.7449 41.6785 26.414C41.0491 29.2055 41.1702 30.0758 41.5701 30.5755C41.785 30.8444 42.104 30.9989 42.445 30.9989C42.9565 30.9989 43.4591 30.8004 43.9393 30.409C44.3826 30.0481 44.6884 29.6428 44.8476 29.2048L44.8824 29.0819C45.0227 28.4024 45.1715 27.7098 45.3306 27.0026C45.4518 26.4641 45.5718 25.9782 45.689 25.5523C47.963 24.3038 49.5277 23.3345 50.4636 22.5949C52.6772 20.8608 54.2291 18.8014 55.0759 16.4745C55.5451 15.1851 55.7053 14.0378 55.5508 13.0585Z" fill="#7584A1"/>
<path fill-rule="evenodd" clip-rule="evenodd" d="M84.3439 13.0686C84.6867 12.1259 84.3069 11.6461 84.0477 11.4422C83.7592 11.2166 83.3881 11.1072 82.9124 11.1072H82.5885C82.3146 11.1072 81.7168 11.1832 79.2177 11.7363C77.3791 12.143 75.937 12.4978 74.9439 12.7877C73.1992 13.2683 72.0544 13.6117 71.4452 13.8376C70.6829 14.119 70.1004 14.4013 69.6678 14.7001C70.0883 13.7449 70.3434 13.1425 70.4393 12.8797C70.6574 12.2801 70.6293 11.7782 70.3561 11.3875C70.1803 11.1363 69.8319 10.8369 69.1723 10.8369C68.6576 10.8369 68.1088 10.9609 67.5408 11.206C66.9342 11.4681 66.4493 11.8496 66.0884 12.3547C65.5311 13.1709 63.9196 15.1178 61.2989 18.1402C60.3743 19.2068 59.5275 20.1726 58.7624 21.0343C58.8605 20.775 58.9532 20.525 59.0402 20.2852L61.3227 14.0149C61.7383 12.8729 61.7564 12.4048 61.6552 12.0524C61.5909 11.8308 61.3014 11.1072 60.2628 11.1072C59.5801 11.1072 59.0153 11.3168 58.5856 11.7295C58.2261 12.0741 57.9476 12.5138 57.7597 13.0292C57.0657 14.8862 56.4249 16.6082 55.8392 18.1942C55.252 19.7815 54.7196 21.234 54.24 22.5503L52.3316 27.7938C52.1099 28.4022 52.0254 28.8697 52.0652 29.2615C52.0847 29.4568 52.2509 30.4308 53.6248 30.4308C54.4052 30.4308 55.2367 29.9196 56.2494 28.8121C56.5535 28.4708 57.1587 27.7963 58.0488 26.8063C58.5518 26.2771 59.4753 25.2505 60.7899 23.7598L62.4917 21.8591C62.2068 22.5436 61.9795 23.119 61.8125 23.5772C61.5799 24.2166 61.3476 24.9188 61.122 25.6636C60.9029 26.3882 60.6905 27.1079 60.4837 27.8229C60.2202 28.5575 60.1786 29.1034 60.3512 29.5378C60.4571 29.8067 60.8119 30.4308 61.8147 30.4308C63.4564 30.4308 64.2069 28.3688 64.463 27.6641C64.7859 26.6774 65.0939 25.7578 65.3862 24.9053C65.6775 24.056 65.9208 23.3627 66.1165 22.826C66.3896 22.0744 67.1384 20.3396 68.3418 17.6699C68.4569 17.4134 68.5663 17.1708 68.6721 16.935C68.7151 17.0696 68.7805 17.2017 68.8874 17.3225C69.1566 17.6273 69.5626 17.7818 70.0944 17.7818C70.3075 17.7818 70.7025 17.7452 71.8593 17.4621C71.9105 17.45 72.0451 17.4195 73.7803 16.9698C73.5259 17.7907 73.2492 18.7571 72.953 19.8597C72.6742 20.8681 72.2874 22.3081 71.7705 24.2613C71.0928 26.8248 70.9667 27.3924 70.9333 27.5952C70.7437 28.7095 70.8449 29.4522 71.2512 29.9338C71.5219 30.2542 71.914 30.4308 72.3559 30.4308C72.9587 30.4308 73.4382 30.2713 73.7824 29.9555C74.0698 29.6905 74.3017 29.2977 74.5123 28.7184L74.5418 28.6189C74.8039 27.5039 75.0586 26.433 75.3066 25.4075C75.5442 24.4194 75.7985 23.5509 76.0628 22.826C76.283 22.2207 76.5476 21.3196 76.8719 20.07C77.3571 18.1981 77.7624 16.7709 78.0807 15.8168C80.6306 15.251 81.1048 15.1373 81.2263 15.1046C83.0176 14.6379 84.0082 13.9911 84.3439 13.0686Z" fill="#7584A1"/>
<path fill-rule="evenodd" clip-rule="evenodd" d="M85.0787 24.1668L85.8477 21.7525C86.6949 21.36 87.0969 21.2069 87.2866 21.149C87.4543 21.0982 87.7743 21.0382 88.3632 21.0271C88.2712 21.2598 87.8716 21.9219 86.1436 23.3313C85.8271 23.5885 85.4716 23.8673 85.0787 24.1668ZM89.5273 17.2158C88.8989 17.2158 88.1619 17.3341 87.2984 17.5742L88.0234 15.5826C88.2578 14.9383 88.537 14.1959 88.8613 13.3545C89.1902 12.4998 89.4012 11.9454 89.4943 11.69C89.7258 11.0545 89.5227 10.6205 89.3809 10.4184C89.111 10.0326 88.6542 9.83691 88.0237 9.83691C87.4689 9.83691 86.9919 10.039 86.6445 10.4216C86.4008 10.6894 86.1788 11.0457 85.9653 11.5106L85.9384 11.5763C85.9018 11.6758 85.6975 12.1706 84.7371 14.3618C84.4153 15.0942 84.1027 15.876 83.8082 16.6852C83.1642 18.4544 82.5171 20.3078 81.8852 22.1929C81.2447 24.1028 80.6519 25.9068 80.134 27.5237C79.9159 28.1222 79.9049 28.6873 80.1003 29.201C80.3347 29.8226 80.8359 30.1934 81.4408 30.1934C81.504 30.1934 81.5694 30.1891 81.639 30.1806C82.1899 30.1088 82.6833 29.8684 83.079 29.4812C84.5076 28.8656 86.2896 27.6079 88.5189 25.6429C91.4574 23.0443 92.0801 22.0359 92.2943 21.4477C92.9166 19.7377 92.3547 18.6935 91.7732 18.1177C91.1676 17.5192 90.4121 17.2158 89.5273 17.2158Z" fill="#7584A1"/>
<path fill-rule="evenodd" clip-rule="evenodd" d="M114.965 9.81006C114.324 9.81006 113.717 10.3109 112.639 11.7274C111.656 13.0338 110.727 14.3271 109.88 15.5671C108.245 17.9288 106.415 20.7232 104.443 23.8713C101.685 28.273 101.555 28.6285 101.485 28.821C101.284 29.373 101.209 29.828 101.254 30.2099C101.336 30.9025 101.864 31.3504 102.601 31.3504C103.049 31.3504 103.466 31.2644 103.838 31.0964C104.312 30.8819 104.651 30.5271 104.818 30.0696C105.098 29.2977 105.434 28.5852 105.813 27.9533C106.081 27.51 106.358 27.0663 106.652 26.6085C107.517 25.2069 108.489 23.6813 109.541 22.0744C110.107 21.2095 110.74 20.2444 111.441 19.1795C111.433 19.2665 111.424 19.3528 111.416 19.4392C111.293 20.6735 111.208 21.7423 111.164 22.6047C111.14 22.9826 111.121 23.5971 111.108 24.4297L111.067 26.6273C111.06 27.5395 111.11 28.1639 111.227 28.5994C111.474 29.4885 112.096 29.9985 112.932 29.9985C113.508 29.9985 113.972 29.8334 114.309 29.5059C114.433 29.3854 114.548 29.221 114.837 28.6591C114.959 28.4239 115.11 28.1305 115.206 24.7153L115.384 18.9124L116.075 12.733C116.155 12.0308 116.185 11.5058 116.164 11.1278C116.113 10.155 115.487 9.81006 114.965 9.81006Z" fill="#7584A1"/>
<path fill-rule="evenodd" clip-rule="evenodd" d="M127.948 18.6217C127.711 18.6217 127.316 18.6774 125.364 19.3448C124.724 19.5637 124.129 19.7739 123.585 19.9736C123.65 19.6912 123.718 19.3917 123.789 19.0742C123.947 18.4757 124.171 17.766 124.457 16.96C125.525 16.5548 126.595 16.142 127.664 15.7236C131.364 14.3039 132.294 13.5384 132.554 12.8262C132.892 11.897 132.447 11.4182 132.239 11.2545C131.951 11.0282 131.579 10.9185 131.103 10.9185C130.975 10.9185 130.818 10.9273 130.612 10.9462C130.327 10.955 129.854 11.0477 128.553 11.5454C127.084 12.1137 126.106 12.4895 125.457 12.7374C125.264 12.1737 124.785 11.8374 124.174 11.8374C123.604 11.8374 123.083 12.1318 122.626 12.7122C122.339 13.0763 122.086 13.5278 121.858 14.0847C121.406 14.2893 121.216 14.4097 121.101 14.4939C120.714 14.7777 120.438 15.1421 120.279 15.5765C120.026 16.2713 120.203 16.7775 120.394 17.0769C120.457 17.1764 120.529 17.2652 120.61 17.3419C120.412 18.0118 120.202 18.7403 119.982 19.5171C119.669 20.6275 119.331 21.9097 118.977 23.3273C118.634 24.7009 118.371 25.7377 118.192 26.4083C118.05 26.9411 117.899 27.4384 117.742 27.8909C117.473 28.1364 117.27 28.4486 117.135 28.8209C116.948 29.3327 116.94 29.8104 117.11 30.2427C117.331 30.8007 117.838 31.1343 118.465 31.1343C119.66 31.1343 121.551 30.4757 124.247 29.1221C127.675 27.3997 128.544 26.5913 128.793 25.9079C129.024 25.271 128.869 24.8455 128.698 24.6011C128.534 24.3681 128.214 24.0903 127.612 24.0814C127.337 24.0686 126.946 24.1035 125.764 24.6157C125.352 24.7979 124.698 25.0973 123.818 25.5072C123.383 25.6987 122.79 25.9569 122.036 26.2833C122.13 25.9214 122.227 25.526 122.326 25.0966C122.385 24.8696 122.445 24.6164 122.506 24.3407C123.704 23.8839 124.823 23.4151 125.835 22.9462C128.319 21.8099 128.973 21.1798 129.19 20.5831C129.332 20.1948 129.322 19.7899 129.162 19.4116C128.951 18.9168 128.497 18.6217 127.948 18.6217Z" fill="#7584A1"/>
<path fill-rule="evenodd" clip-rule="evenodd" d="M150.352 19.4031C151.473 18.2328 152.467 17.0738 153.306 15.9588C154.188 14.787 154.769 13.7974 155.083 12.9335C155.191 12.638 155.518 11.739 155.043 11.0606C154.892 10.846 154.535 10.4859 153.829 10.4859C153.264 10.4859 152.719 10.7455 152.209 11.2584C151.779 11.6907 151.436 12.2523 151.19 12.9279C151.171 12.9829 151.03 13.3086 150.247 14.3092C149.655 15.0658 148.925 15.9282 148.079 16.8724C147.245 17.8016 146.515 18.5638 145.9 19.146C146.076 18.6512 146.246 18.1731 146.411 17.7128C146.899 16.3456 147.337 15.1312 147.724 14.0688C148.105 13.0213 148.212 12.4111 148.093 11.9607C147.925 11.3344 147.387 10.9451 146.689 10.9451C146.484 10.9451 146.3 10.9931 146.133 11.0712C146.205 10.4415 145.882 10.0909 145.712 9.95662C145.423 9.73072 145.052 9.62061 144.576 9.62061C144.448 9.62061 144.291 9.62949 144.084 9.64831C143.8 9.65719 143.327 9.7499 142.025 10.2479C140.558 10.8159 139.579 11.1917 138.93 11.4396C138.737 10.8759 138.258 10.5395 137.646 10.5395C137.076 10.5395 136.555 10.8343 136.099 11.4144C135.811 11.7795 135.557 12.2327 135.327 12.7936C134.994 12.9495 134.747 13.0827 134.558 13.2081C133.965 13.6159 133.762 14.1068 133.697 14.4584C133.574 15.0037 133.683 15.5148 134.006 15.8988C134.062 15.9659 134.122 16.027 134.186 16.0817C133.839 17.2808 133.484 18.5102 133.12 19.769C132.672 21.3241 132.34 22.5406 132.133 23.3842C131.931 24.2033 131.743 24.8896 131.575 25.4238C131.401 25.9726 131.138 26.7338 130.791 27.6853L130.319 28.9829C130.078 29.645 130.207 30.1188 130.358 30.4019C130.609 30.8668 131.091 31.1336 131.682 31.1336C132.239 31.1336 132.705 30.9748 133.066 30.6623C133.376 30.393 133.617 30.03 133.778 29.5864C133.799 29.5295 133.843 29.3928 134.455 27.3902C134.867 26.0372 135.243 24.8924 135.573 23.9884C135.98 22.8685 136.537 20.8953 137.276 17.9557C137.501 17.0599 137.721 16.2902 137.933 15.6608C139 15.2562 140.07 14.8438 141.137 14.4257C142.906 13.747 144.037 13.2188 144.769 12.7734C144.527 13.2753 144.27 13.8961 143.993 14.6577C143.882 14.9639 143.363 16.363 142.438 18.8558C141.587 21.1475 140.989 22.7676 140.642 23.7163C140.408 23.9042 140.186 24.1106 139.979 24.3319C139.658 24.675 139.44 25.0117 139.313 25.3609C139.057 26.0649 139.095 26.6013 139.236 26.9934C139.032 27.5859 138.913 28.0224 138.868 28.3474C138.792 28.877 138.976 29.2194 139.144 29.413C139.312 29.6062 139.623 29.8364 140.154 29.8364C140.991 29.8364 141.724 29.483 142.275 28.8163C142.439 28.6181 142.599 28.3591 142.757 28.0334L144.717 28.9509C146.068 29.5469 147.113 29.8364 147.911 29.8364C148.531 29.8364 149.057 29.5771 149.44 29.0756C149.6 28.8589 149.748 28.5566 149.906 28.1236C150.038 27.7603 150.192 26.8417 148.773 26.1665L148.717 26.142C148.215 25.9456 147.724 25.7484 147.272 25.5651L144.933 24.5031C145.323 24.1589 145.815 23.7231 146.409 23.197C147.814 21.9556 149.141 20.678 150.352 19.4031Z" fill="#7584A1"/>
<path fill-rule="evenodd" clip-rule="evenodd" d="M157.271 26.0541C157.091 26.0541 156.613 26.0541 156.178 25.007C155.784 24.0363 155.819 22.9426 156.284 21.6642C156.652 20.6541 157.506 19.3732 158.824 17.8579C160.409 16.0318 161.816 15.1062 163.003 15.1062C163.246 15.1062 163.986 15.1062 164.832 16.5497C165.433 17.5752 165.538 18.5829 165.157 19.6311C164.672 20.9638 163.473 22.3878 161.595 23.8633C159.29 25.6741 157.971 26.0541 157.271 26.0541ZM168.97 20.0648L169.003 19.988C169.699 18.0746 169.488 16.1824 168.372 14.3635C167.177 12.418 165.414 11.4316 163.134 11.4316C161.504 11.4316 159.623 12.4262 157.384 14.4721C155.076 16.5767 153.421 18.9764 152.465 21.6042C151.783 23.4782 151.833 25.2976 152.616 27.0121C153.661 29.3017 155.348 29.7823 156.58 29.7823C158.969 29.7823 161.571 28.5633 164.316 26.16C166.698 24.0774 168.18 22.1732 168.849 20.3386C168.868 20.2829 168.911 20.1916 168.97 20.0648Z" fill="#7584A1"/>
<mask id="mask0" mask-type="alpha" maskUnits="userSpaceOnUse" x="171" y="1" width="13" height="23">
<path fill-rule="evenodd" clip-rule="evenodd" d="M171.604 1.05322H184V23.1182H171.604V1.05322Z" fill="white"/>
</mask>
<g mask="url(#mask0)">
<path fill-rule="evenodd" clip-rule="evenodd" d="M183.924 1.96928C183.835 1.694 183.509 1.05322 182.41 1.05322C181.468 1.05322 180.608 1.93341 179.52 4.0266C178.745 5.66477 177.969 7.33101 177.217 8.97488L175.242 13.2319C173.763 16.5221 172.709 18.7812 172.122 19.9186C172.024 20.0937 171.921 20.3313 171.799 20.6666C171.57 21.2967 171.543 21.8121 171.715 22.2366C171.846 22.5659 172.229 23.1182 173.319 23.1182C174.817 23.1182 175.972 22.3581 176.649 20.9401C177.821 18.6423 178.659 16.9178 179.138 15.8142C179.619 14.7092 180.196 13.2309 180.855 11.4201L183.637 3.77547C183.65 3.73853 183.686 3.65399 183.767 3.50197L183.817 3.38972C184.018 2.83703 184.053 2.3735 183.924 1.96928Z" fill="#7584A1"/>
</g>
<path fill-rule="evenodd" clip-rule="evenodd" d="M174.128 24.7607C173.407 24.7607 172.412 25.1639 170.997 26.0284C169.124 27.174 168.713 27.7668 168.557 28.1952C168.256 29.0224 168.472 29.5506 168.702 29.8447C169.121 30.385 169.901 30.4542 170.533 30.4542C171.573 30.4542 172.663 30.0962 173.773 29.3904C174.923 28.6594 175.616 27.9344 175.894 27.174C176.142 26.4902 176.107 25.9141 175.79 25.4612C175.464 24.9962 174.905 24.7607 174.128 24.7607Z" fill="#7584A1"/>
<mask id="mask1" mask-type="alpha" maskUnits="userSpaceOnUse" x="0" y="2" width="22" height="28">
<path fill-rule="evenodd" clip-rule="evenodd" d="M0 2.54834H21.9243V29.4014H0V2.54834Z" fill="white"/>
</mask>
<g mask="url(#mask1)">
<path fill-rule="evenodd" clip-rule="evenodd" d="M12.8682 8.57891C16.6901 7.7307 17.3821 7.56553 17.5554 7.51864C19.9512 6.89456 21.3237 6.02006 21.7507 4.84577C22.1392 3.77839 21.8025 3.22499 21.4502 2.94723C21.107 2.6787 20.6524 2.54834 20.0596 2.54834H19.596C19.2639 2.54834 18.4256 2.64957 14.8626 3.43776C12.2434 4.01709 10.1911 4.52218 8.77594 4.93528C6.29203 5.61904 4.66664 6.10673 3.80777 6.42534C1.66201 7.21743 0.553785 7.98608 0.214925 8.91742C0.0891845 9.26267 -0.244348 10.1794 0.307987 10.8053C0.622694 11.1591 1.09404 11.331 1.74797 11.331C2.03212 11.331 2.56741 11.2798 4.18286 10.8838C4.25993 10.8664 4.47376 10.8177 7.57608 10.0129C7.15978 11.3093 6.69696 12.9042 6.19399 14.7757C5.79049 16.2367 5.23851 18.2918 4.50644 21.0592C3.53107 24.7469 3.35986 25.5283 3.31759 25.7897C3.06646 27.2635 3.18439 28.2278 3.68806 28.8246C4.00668 29.2018 4.45281 29.4014 4.9785 29.4014C5.74325 29.4014 6.34282 29.2068 6.7616 28.8217C7.12106 28.4903 7.43009 27.9604 7.70608 27.202L7.73591 27.1022C8.10994 25.5084 8.47366 23.9786 8.8278 22.5127C9.17127 21.0865 9.53891 19.8323 9.92039 18.7849C10.2305 17.9324 10.6052 16.6565 11.0663 14.8823C11.7966 12.0634 12.4015 9.9475 12.8682 8.57891Z" fill="#FEFEFE"/>
</g>
<path fill-rule="evenodd" clip-rule="evenodd" d="M24.4765 11.4886C24.2431 11.7965 23.7998 12.3133 22.9584 13.1509C22.1535 13.96 20.997 15.0182 19.5158 16.3001C19.4256 16.3793 19.336 16.4578 19.248 16.5352C19.3115 16.3402 19.3829 16.1349 19.4607 15.9211L19.8688 14.7997C19.9893 14.4697 20.1303 14.1341 20.2894 13.7998C21.1621 13.0461 22.026 12.4551 22.8578 12.0423C23.4258 11.7606 23.9678 11.5756 24.4765 11.4886ZM18.4391 24.0015C17.4186 24.8103 16.9544 24.9357 16.8024 24.952C16.5463 24.9794 16.3047 25.0277 16.0785 25.0966C16.2859 24.3514 16.4251 23.8807 16.5189 23.5849C16.9064 23.3934 17.3749 23.1615 17.9099 22.8954C18.6622 22.5576 19.3403 22.3832 19.926 22.3779C19.6646 22.8848 19.1662 23.4296 18.4391 24.0015ZM21.6007 18.6554C21.8852 18.41 22.1712 18.1631 22.4592 17.9145C23.983 16.5711 25.163 15.4618 25.9679 14.6154C27.2363 13.2713 28.0078 12.1908 28.3271 11.3127C28.6461 10.4368 28.6226 9.6568 28.2511 8.98406C27.7904 8.17491 27.0292 7.72949 26.1082 7.72949C24.6568 7.72949 23.0162 8.19942 21.2327 9.12507C19.9622 9.78183 18.6607 10.6521 17.3671 11.7095C15.774 13.001 15.5531 13.3562 15.443 13.6588C15.2092 14.3014 15.3741 14.7422 15.5538 14.9983C15.6866 15.1887 15.8639 15.3336 16.0837 15.4327L14.6871 18.9296C13.7 21.6412 12.8891 23.9198 12.2767 25.7008C11.6505 27.5208 11.2932 28.5509 11.1848 28.8489C10.9039 29.6201 11.0417 30.2104 11.2069 30.5699C11.4903 31.1865 12.0157 31.5403 12.6479 31.5403C13.0884 31.5403 13.5082 31.3968 13.8957 31.1133C14.2705 30.838 14.5472 30.4601 14.7184 29.9895C14.7642 29.8644 14.8473 29.6041 15.0626 28.8312C15.1638 28.8532 15.2696 28.8642 15.3787 28.8642C16.6844 28.8642 18.276 28.0639 20.2453 26.4158C22.0404 24.9119 23.0425 23.754 23.3998 22.7729C24.021 21.0658 23.4516 20.0073 22.8613 19.417C22.4947 19.054 22.0728 18.7996 21.6007 18.6554Z" fill="#FEFEFE"/>
<path fill-rule="evenodd" clip-rule="evenodd" d="M29.3626 25.0009C29.1825 25.0009 28.7044 25.0009 28.2697 23.9541C27.8758 22.9826 27.9106 21.8893 28.3759 20.6109C28.7435 19.6004 29.5981 18.3199 30.9155 16.8046C32.5012 14.9786 33.907 14.0529 35.0945 14.0529C35.3378 14.0529 36.0777 14.0529 36.9241 15.4968C37.5244 16.5219 37.6302 17.5296 37.2487 18.5778C36.7635 19.9105 35.5651 21.3345 33.6865 22.81C31.3812 24.6211 30.0627 25.0009 29.3626 25.0009ZM41.0627 19.0115L41.0946 18.9348C41.7912 17.0214 41.5791 15.1292 40.4642 13.3102C39.2686 11.3648 37.5061 10.3784 35.2253 10.3784C33.596 10.3784 31.7152 11.373 29.4757 13.4189C27.1683 15.5238 25.5131 17.9236 24.5569 20.5513C23.8746 22.4254 23.9254 24.245 24.7082 25.9589C25.7525 28.2488 27.4401 28.7291 28.6715 28.7291C31.0603 28.7291 33.6635 27.51 36.4081 25.1068C38.7901 23.0242 40.2723 21.12 40.9394 19.2872C40.96 19.231 41.0019 19.1391 41.0627 19.0115Z" fill="#FEFEFE"/>
<path fill-rule="evenodd" clip-rule="evenodd" d="M45.9102 20.29C45.9905 19.8811 46.0857 19.4279 46.1954 18.9324C46.476 17.6629 46.7559 16.4162 47.0355 15.1914C48.3252 14.3084 48.6318 14.1223 48.7039 14.0836C49.3866 13.7174 50.0618 13.5394 50.7683 13.5394C50.8265 13.5394 50.8578 13.5465 50.8652 13.5444C50.872 13.5561 50.8862 13.5849 50.9008 13.6392C50.9846 13.9617 50.9253 14.4171 50.7292 14.9563C50.2067 16.3916 49.4402 17.6089 48.4499 18.5754C48.1142 18.9036 47.4053 19.4471 45.9102 20.29ZM54.8486 12.0053C54.6219 10.6279 53.7283 9.83789 52.3959 9.83789C51.1641 9.83789 49.955 10.0894 48.7921 10.5902C48.6258 10.6644 48.2983 10.825 47.3674 11.3425C47.1557 10.9433 46.7436 10.6961 46.241 10.6961C46.1753 10.6961 46.1053 10.7 46.0229 10.7099C45.531 10.7731 45.1001 10.999 44.778 11.3635C44.5215 11.6526 44.3094 12.0245 44.1478 12.4692C44.0786 12.6596 44.0203 12.851 43.9734 13.0425C43.6893 13.2453 43.3966 13.5025 43.0886 13.8215C42.6027 14.3223 42.3466 14.67 42.2326 14.983C42.0863 15.3843 42.1111 15.7981 42.3026 16.148C42.4372 16.3945 42.6436 16.5973 42.9259 16.7593C42.7888 17.2562 42.65 17.8558 42.5054 18.5701C42.1761 20.2083 41.9349 21.3414 41.7875 21.9388C41.6359 22.5533 41.3663 23.6921 40.9763 25.3612C40.3468 28.1523 40.4683 29.0226 40.8679 29.5223C41.0828 29.7912 41.4018 29.9457 41.7428 29.9457C42.2543 29.9457 42.7569 29.7472 43.2375 29.3561C43.6804 28.9949 43.9862 28.5896 44.1453 28.1516L44.1802 28.0291C44.3205 27.3492 44.4693 26.6566 44.6284 25.9494C44.7495 25.4109 44.8696 24.925 44.9868 24.4991C47.2608 23.2506 48.8254 22.2812 49.7618 21.5417C51.975 19.8076 53.5269 17.7485 54.3737 15.4213C54.8429 14.1319 55.0031 12.9846 54.8486 12.0053Z" fill="#FEFEFE"/>
<path fill-rule="evenodd" clip-rule="evenodd" d="M83.6418 12.0159C83.9845 11.0732 83.6048 10.593 83.3459 10.3891C83.0571 10.1639 82.6859 10.0545 82.2107 10.0545H81.8864C81.6125 10.0545 81.0147 10.1305 78.5155 10.6832C76.677 11.0899 75.2353 11.4451 74.2418 11.7346C72.497 12.2152 71.3522 12.559 70.7431 12.7845C69.9808 13.0662 69.3983 13.3486 68.966 13.647C69.3862 12.6922 69.6412 12.0898 69.7371 11.8269C69.9552 11.2274 69.9272 10.7251 69.654 10.3347C69.4782 10.0836 69.1301 9.78418 68.4702 9.78418C67.9555 9.78418 67.4067 9.90814 66.8387 10.1532C66.2324 10.4154 65.7472 10.7965 65.3863 11.3019C64.829 12.1182 63.2178 14.0647 60.5968 17.0871C59.6722 18.1541 58.8254 19.1199 58.0603 19.9816C58.1584 19.7219 58.2511 19.4719 58.3384 19.2325L60.6206 12.9621C61.0362 11.8202 61.0543 11.3517 60.9531 10.9993C60.8888 10.7777 60.5993 10.0545 59.561 10.0545C58.878 10.0545 58.3132 10.2641 57.8834 10.6768C57.524 11.0213 57.2455 11.4611 57.0576 11.9765C56.3635 13.8335 55.7228 15.5555 55.137 17.1414C54.5499 18.7285 54.0174 20.1809 53.5379 21.4972L51.6294 26.7407C51.4078 27.3495 51.3233 27.8166 51.3634 28.2087C51.3826 28.4041 51.5488 29.378 52.9227 29.378C53.7031 29.378 54.5346 28.8666 55.5473 27.759C55.8513 27.4177 56.4566 26.7435 57.3471 25.7536C57.8497 25.2243 58.7732 24.1978 60.0878 22.707L61.7896 20.806C61.5047 21.4912 61.2774 22.0663 61.1104 22.5245C60.8778 23.1642 60.6455 23.8661 60.4199 24.6109C60.2008 25.3352 59.9883 26.0548 59.782 26.7698C59.5184 27.5044 59.4765 28.0507 59.6491 28.4847C59.755 28.7536 60.1098 29.378 61.1126 29.378C62.7543 29.378 63.5048 27.3161 63.7609 26.6114C64.0838 25.6246 64.3918 24.705 64.6841 23.8522C64.9753 23.0033 65.2187 22.3099 65.4144 21.7732C65.6875 21.0216 66.4366 19.2868 67.6397 16.6168C67.7551 16.3607 67.8642 16.1181 67.97 15.8822C68.013 16.0169 68.0784 16.149 68.1856 16.2698C68.4545 16.5745 68.8605 16.729 69.3923 16.729C69.6054 16.729 70.0004 16.6921 71.1572 16.409C71.2084 16.3973 71.343 16.3664 73.0782 15.9171C72.8238 16.7379 72.5471 17.7044 72.2509 18.8066C71.9721 19.8154 71.5852 21.2553 71.0688 23.2086C70.3907 25.7724 70.2646 26.3393 70.2312 26.5425C70.0416 27.6564 70.1428 28.3995 70.5491 28.8808C70.8198 29.2015 71.2123 29.378 71.6538 29.378C72.2566 29.378 72.7361 29.2186 73.0803 28.9024C73.3676 28.6378 73.5996 28.2446 73.8102 27.6656L73.8397 27.5658C74.1018 26.4512 74.3565 25.3803 74.6044 24.3545C74.8421 23.3663 75.0964 22.4982 75.3607 21.7732C75.5809 21.1683 75.8455 20.2668 76.1698 19.0172C76.655 17.145 77.0603 15.7181 77.3786 14.7641C79.9285 14.1979 80.4031 14.0846 80.5242 14.0515C82.3155 13.5848 83.3061 12.938 83.6418 12.0159Z" fill="#FEFEFE"/>
<path fill-rule="evenodd" clip-rule="evenodd" d="M84.3766 23.1136L85.1456 20.6993C85.9927 20.3068 86.3948 20.1537 86.5845 20.0958C86.7525 20.045 87.0722 19.985 87.6611 19.974C87.5691 20.2066 87.1695 20.8687 85.4418 22.2782C85.125 22.5353 84.7694 22.8142 84.3766 23.1136ZM88.8251 16.1627C88.1968 16.1627 87.4598 16.281 86.5963 16.5215L87.3212 14.5295C87.556 13.8852 87.8348 13.1428 88.1591 12.3014C88.4881 11.4468 88.699 10.8923 88.7921 10.6369C89.0237 10.0014 88.8205 9.56739 88.6791 9.36529C88.4088 8.97954 87.9521 8.78418 87.3216 8.78418C86.7668 8.78418 86.2897 8.98629 85.9423 9.36848C85.6987 9.6363 85.4767 9.99257 85.2632 10.4575L85.2362 10.5232C85.1996 10.6227 84.9954 11.1175 84.0349 13.3087C83.7131 14.0411 83.4005 14.8229 83.1061 15.6317C82.4621 17.4013 81.8153 19.2547 81.183 21.1398C80.5426 23.05 79.9498 24.8541 79.4319 26.4706C79.2138 27.0695 79.2028 27.6346 79.3981 28.1479C79.6326 28.7695 80.1338 29.1403 80.7387 29.1403C80.8019 29.1403 80.8673 29.1364 80.9369 29.1275C81.4878 29.0558 81.9812 28.8153 82.3768 28.4281C83.8055 27.8126 85.5875 26.5548 87.8171 24.5898C90.7553 21.9912 91.378 20.9828 91.5921 20.3946C92.2144 18.6846 91.6525 17.6404 91.0711 17.0646C90.4654 16.4661 89.7099 16.1627 88.8251 16.1627Z" fill="#FEFEFE"/>
<path fill-rule="evenodd" clip-rule="evenodd" d="M114.263 8.75684C113.623 8.75684 113.014 9.25767 111.937 10.6746C110.954 11.9806 110.024 13.2739 109.178 14.5139C107.543 16.8756 105.713 19.67 103.741 22.8181C100.982 27.2197 100.853 27.5753 100.782 27.7682C100.582 28.3201 100.507 28.7748 100.552 29.1566C100.634 29.8493 101.162 30.2972 101.899 30.2972C102.347 30.2972 102.763 30.2116 103.136 30.0432C103.61 29.8287 103.949 29.4738 104.116 29.0163C104.396 28.2445 104.732 27.532 105.111 26.9001C105.379 26.4568 105.656 26.0131 105.95 25.5556C106.815 24.154 107.787 22.6284 108.839 21.0212C109.405 20.1562 110.038 19.1912 110.739 18.1266C110.731 18.2133 110.722 18.2996 110.713 18.3859C110.591 19.6202 110.506 20.6894 110.462 21.5515C110.437 21.9294 110.419 22.5439 110.405 23.3765L110.365 25.5741C110.358 26.4866 110.408 27.111 110.525 27.5462C110.772 28.4352 111.394 28.9453 112.229 28.9453C112.806 28.9453 113.269 28.7801 113.607 28.4526C113.731 28.3322 113.846 28.1678 114.135 27.6062C114.257 27.3707 114.409 27.0773 114.504 23.6621L114.682 17.8592L115.373 11.6801C115.453 10.9775 115.483 10.4526 115.462 10.0746C115.411 9.10209 114.784 8.75684 114.263 8.75684Z" fill="#FEFEFE"/>
<path fill-rule="evenodd" clip-rule="evenodd" d="M127.246 17.5684C127.008 17.5684 126.614 17.6242 124.662 18.2916C124.022 18.5104 123.427 18.7207 122.883 18.9203C122.948 18.6383 123.016 18.3385 123.087 18.0213C123.245 17.4225 123.469 16.7128 123.755 15.9072C124.823 15.5015 125.893 15.0891 126.962 14.6704C130.662 13.2506 131.593 12.4852 131.852 11.773C132.19 10.8438 131.745 10.365 131.537 10.2013C131.249 9.97535 130.877 9.86523 130.401 9.86523C130.273 9.86523 130.116 9.87411 129.91 9.89294C129.625 9.90218 129.152 9.99453 127.851 10.4922C126.382 11.0605 125.404 11.4363 124.755 11.6846C124.562 11.1205 124.083 10.7841 123.471 10.7841C122.902 10.7841 122.381 11.0786 121.924 11.659C121.636 12.0231 121.384 12.4745 121.156 13.0315C120.704 13.2361 120.514 13.3565 120.399 13.4407C120.012 13.7245 119.735 14.0889 119.577 14.5237C119.324 15.2181 119.501 15.7242 119.692 16.024C119.755 16.1231 119.827 16.2119 119.908 16.2887C119.71 16.9586 119.5 17.6871 119.28 18.4639C118.967 19.5743 118.629 20.8565 118.275 22.2745C117.932 23.6477 117.669 24.6845 117.49 25.3551C117.348 25.8879 117.196 26.3852 117.039 26.8377C116.771 27.0835 116.568 27.3954 116.433 27.7676C116.246 28.2795 116.237 28.7576 116.408 29.1895C116.629 29.7475 117.136 30.081 117.763 30.081C118.958 30.081 120.849 29.4225 123.545 28.0688C126.973 26.3465 127.841 25.538 128.091 24.8546C128.322 24.2178 128.167 23.7922 127.996 23.5479C127.832 23.3149 127.512 23.0371 126.91 23.0282C126.639 23.0158 126.246 23.0495 125.062 23.5624C124.65 23.7446 123.996 24.0441 123.116 24.454C122.681 24.6454 122.088 24.9037 121.333 25.2301C121.428 24.8681 121.525 24.4728 121.624 24.0434C121.683 23.8164 121.743 23.5631 121.804 23.2875C123.002 22.8307 124.121 22.3622 125.133 21.893C127.617 20.7567 128.271 20.1266 128.488 19.5299C128.63 19.1416 128.62 18.7367 128.459 18.3584C128.248 17.864 127.795 17.5684 127.246 17.5684Z" fill="#FEFEFE"/>
<path fill-rule="evenodd" clip-rule="evenodd" d="M149.65 18.3499C150.77 17.1795 151.765 16.0209 152.604 14.9056C153.486 13.7338 154.067 12.7445 154.381 11.8803C154.489 11.5848 154.815 10.6858 154.341 10.0077C154.19 9.79282 153.832 9.43265 153.127 9.43265C152.562 9.43265 152.017 9.6923 151.506 10.2052C151.077 10.6375 150.734 11.1994 150.488 11.8746C150.468 11.9297 150.328 12.2554 149.545 13.2564C148.953 14.0126 148.223 14.875 147.377 15.8191C146.543 16.7483 145.813 17.5106 145.197 18.0928C145.373 17.598 145.544 17.1202 145.709 16.6595C146.197 15.2927 146.635 14.0779 147.022 13.0155C147.403 11.9684 147.51 11.3582 147.39 10.9078C147.222 10.2812 146.684 9.89192 145.986 9.89192C145.782 9.89192 145.598 9.93987 145.43 10.018C145.502 9.38825 145.18 9.03767 145.01 8.9034C144.721 8.67749 144.35 8.56738 143.874 8.56738C143.745 8.56738 143.589 8.57626 143.382 8.59544C143.098 8.60432 142.624 8.69668 141.323 9.19466C139.855 9.76263 138.877 10.1388 138.228 10.3867C138.035 9.82266 137.556 9.48628 136.944 9.48628C136.374 9.48628 135.853 9.7811 135.396 10.3611C135.108 10.7263 134.855 11.1795 134.625 11.7404C134.292 11.8963 134.045 12.0295 133.856 12.1549C133.263 12.5627 133.059 13.0535 132.994 13.4052C132.872 13.9504 132.981 14.4616 133.303 14.8455C133.359 14.913 133.42 14.9741 133.484 15.0285C133.137 16.2276 132.781 17.457 132.418 18.7158C131.97 20.2708 131.637 21.4874 131.43 22.331C131.229 23.1501 131.041 23.8363 130.873 24.3706C130.699 24.9193 130.435 25.6805 130.089 26.6321L129.617 27.9296C129.376 28.5917 129.504 29.0656 129.656 29.3487C129.906 29.8136 130.389 30.0804 130.979 30.0804C131.537 30.0804 132.003 29.922 132.364 29.609C132.675 29.3398 132.914 28.9771 133.076 28.5331C133.097 28.4763 133.141 28.3396 133.752 26.3369C134.165 24.984 134.541 23.8392 134.87 22.9352C135.278 21.8152 135.835 19.8421 136.574 16.9025C136.799 16.0067 137.019 15.237 137.231 14.6075C138.298 14.203 139.368 13.7906 140.435 13.3729C142.204 12.6937 143.335 12.1656 144.067 11.7201C143.825 12.222 143.568 12.8429 143.291 13.6045C143.179 13.9106 142.661 15.3101 141.736 17.8026C140.885 20.0943 140.286 21.7144 139.94 22.6631C139.706 22.851 139.484 23.0574 139.277 23.2787C138.956 23.6218 138.738 23.9585 138.611 24.3077C138.354 25.0117 138.393 25.548 138.534 25.9402C138.329 26.5326 138.211 26.9692 138.166 27.2942C138.09 27.8242 138.274 28.1662 138.442 28.3598C138.609 28.553 138.92 28.7832 139.452 28.7832C140.289 28.7832 141.022 28.4298 141.572 27.7631C141.737 27.5649 141.897 27.3059 142.055 26.9806L144.015 27.898C145.366 28.4937 146.411 28.7832 147.209 28.7832C147.829 28.7832 148.354 28.5239 148.737 28.0224C148.898 27.8057 149.046 27.5034 149.204 27.0708C149.336 26.7071 149.49 25.7885 148.071 25.1133L148.014 25.0891C147.513 24.8923 147.022 24.6956 146.57 24.5119L144.231 23.4499C144.62 23.1057 145.113 22.6702 145.707 22.1442C147.112 20.9024 148.439 19.6251 149.65 18.3499Z" fill="#FEFEFE"/>
<path fill-rule="evenodd" clip-rule="evenodd" d="M156.569 25.0009C156.389 25.0009 155.911 25.0009 155.476 23.9541C155.082 22.983 155.117 21.8893 155.583 20.6109C155.95 19.6008 156.804 18.3199 158.122 16.8046C159.707 14.9786 161.114 14.0529 162.301 14.0529C162.544 14.0529 163.284 14.0529 164.131 15.4968C164.731 16.5219 164.837 17.53 164.455 18.5778C163.97 19.9105 162.771 21.3345 160.893 22.81C158.588 24.6211 157.269 25.0009 156.569 25.0009ZM168.269 19.0115L168.301 18.9348C168.997 17.0214 168.786 15.1292 167.67 13.3102C166.475 11.3648 164.712 10.3784 162.432 10.3784C160.803 10.3784 158.921 11.373 156.682 13.4189C154.375 15.5238 152.719 17.9232 151.763 20.551C151.081 22.425 151.132 24.2447 151.914 25.9589C152.959 28.2488 154.646 28.7291 155.878 28.7291C158.267 28.7291 160.869 27.51 163.614 25.1068C165.996 23.0242 167.479 21.12 168.147 19.2854C168.167 19.2296 168.209 19.1383 168.269 19.0115Z" fill="#FEFEFE"/>
<path fill-rule="evenodd" clip-rule="evenodd" d="M173.426 23.7075C172.705 23.7075 171.71 24.1107 170.295 24.9752C168.422 26.1211 168.011 26.7136 167.855 27.1423C167.554 27.9692 167.769 28.4977 168 28.7915C168.419 29.3317 169.199 29.401 169.831 29.401C170.871 29.401 171.961 29.043 173.071 28.3372C174.221 27.6062 174.914 26.8816 175.192 26.1207C175.44 25.4373 175.405 24.8609 175.088 24.408C174.763 23.943 174.204 23.7075 173.426 23.7075Z" fill="#FEFEFE"/>
<path fill-rule="evenodd" clip-rule="evenodd" d="M183.222 0.916059C183.133 0.640779 182.807 0 181.708 0C180.766 0 179.906 0.880184 178.818 2.97337C178.043 4.61155 177.267 6.27779 176.515 7.92165L174.54 12.1787C173.061 15.4689 172.007 17.728 171.42 18.8653C171.322 19.0405 171.219 19.2781 171.097 19.6134C170.868 20.2435 170.841 20.7589 171.013 21.1834C171.144 21.5126 171.527 22.065 172.617 22.065C174.115 22.065 175.27 21.3048 175.947 19.8873C177.119 17.5891 177.957 15.8643 178.436 14.761C178.916 13.6556 179.494 12.1773 180.153 10.3668L182.935 2.72225C182.949 2.68531 182.984 2.60077 183.065 2.44874L183.115 2.33615C183.316 1.78381 183.351 1.31992 183.222 0.916059Z" fill="#FEFEFE"/>
<path fill-rule="evenodd" clip-rule="evenodd" d="M20.9262 4.54572C20.6079 5.42094 19.4098 6.12885 17.3344 6.66946C17.0488 6.74654 15.3382 7.13264 12.2021 7.82777C11.7056 9.19244 11.0438 11.4707 10.2173 14.6622C9.76868 16.387 9.39572 17.6611 9.09593 18.4848C8.70237 19.5657 8.32834 20.8401 7.97492 22.3075C7.62079 23.7748 7.256 25.3061 6.88162 26.902C6.65678 27.52 6.41844 27.9448 6.16696 28.1764C5.91512 28.408 5.51907 28.5238 4.97846 28.5238C4.1544 28.5238 3.88906 27.6614 4.18281 25.9369C4.24604 25.5508 4.6364 24 5.35497 21.2838C6.07318 18.5686 6.63475 16.4769 7.04004 15.0095C7.76642 12.3068 8.3969 10.2218 8.93076 8.75448C5.86006 9.55261 4.2123 9.97743 3.98781 10.0286C2.82879 10.3124 2.08252 10.4534 1.74828 10.4534C1.36182 10.4534 1.10075 10.376 0.963643 10.2218C0.826891 10.0669 0.85211 9.73305 1.03966 9.21766C1.27373 8.57475 2.29777 7.91834 4.11177 7.24844C4.94436 6.93977 6.57686 6.45101 9.00855 5.78146C10.4194 5.36979 12.4341 4.87393 15.0523 4.2946C17.6697 3.71562 19.1843 3.42578 19.5963 3.42578H20.0599C20.4456 3.42578 20.7291 3.49718 20.9091 3.63819C21.0889 3.77991 21.0949 4.08219 20.9262 4.54572Z" fill="#DC1F26"/>
<path fill-rule="evenodd" clip-rule="evenodd" d="M25.5537 11.3915C25.6262 11.1933 25.6276 11.004 25.558 10.8235C25.4884 10.6438 25.3456 10.5536 25.1296 10.5536C24.3002 10.5536 23.4133 10.7877 22.4677 11.2562C21.5222 11.725 20.5589 12.391 19.5775 13.2563C19.3729 13.6708 19.1949 14.0853 19.0443 14.4995C18.8998 14.8959 18.7637 15.2699 18.6359 15.6216C18.508 15.9725 18.3972 16.3018 18.3041 16.6076L17.2463 19.365C18.059 18.7161 19.0081 17.9147 20.095 16.9592C21.5943 15.6617 22.7562 14.5986 23.5802 13.7699C24.7385 12.6169 25.3964 11.8238 25.5537 11.3915ZM27.5027 11.0128C27.2271 11.7698 26.5025 12.7696 25.3296 14.0128C24.5411 14.8422 23.3909 15.9231 21.8789 17.2562C20.9592 18.0497 20.0521 18.8333 19.158 19.6079C19.3939 19.554 19.6145 19.5046 19.8201 19.4591C20.0258 19.4144 20.2908 19.392 20.6151 19.392C21.2636 19.392 21.8067 19.6079 22.244 20.0406C22.8382 20.6352 22.9487 21.4461 22.575 22.473C22.2799 23.2839 21.3152 24.3744 19.6816 25.7437C17.8939 27.2394 16.4596 27.9867 15.3787 27.9867C15.2338 27.9867 15.1151 27.942 15.0224 27.8514C14.8761 27.7076 14.8594 27.4824 14.9713 27.1758C15.0956 26.8338 15.3205 26.5365 15.6472 26.2836C15.9726 26.0317 16.3889 25.8786 16.8954 25.8243C17.4016 25.7703 18.0978 25.392 18.9843 24.6894C19.9686 23.9144 20.5959 23.1578 20.8644 22.4186C21.0875 21.8066 20.7841 21.4997 19.9558 21.4997C19.2348 21.4997 18.4327 21.6983 17.5504 22.0947C16.8244 22.4552 16.2418 22.7429 15.8028 22.9596C15.6323 23.4281 15.2959 24.5992 14.794 26.4732C14.2922 28.3473 13.9924 29.4193 13.894 29.6896C13.7824 29.9954 13.6102 30.2341 13.3764 30.4056C13.1427 30.5769 12.8998 30.6625 12.6479 30.6625C12.3592 30.6625 12.145 30.5094 12.004 30.2028C11.8633 29.8963 11.8651 29.545 12.0093 29.1493C12.1208 28.8424 12.4863 27.7889 13.1065 25.9863C13.726 24.185 14.528 21.9324 15.5119 19.2297L17.3366 14.6618C17.1426 14.698 17.0101 14.7158 16.938 14.7158C16.3072 14.7158 16.0838 14.4636 16.2674 13.9589C16.3463 13.7429 16.8965 13.2204 17.9194 12.391C19.1758 11.3641 20.4147 10.5358 21.6359 9.90461C23.3018 9.0397 24.7922 8.60742 26.1082 8.60742C26.7202 8.60742 27.1806 8.87737 27.4885 9.41834C27.7272 9.85062 27.7322 10.3824 27.5027 11.0128Z" fill="#DC1F26"/>
<path fill-rule="evenodd" clip-rule="evenodd" d="M38.0733 18.8782C38.5457 17.5814 38.4147 16.3066 37.6815 15.0538C36.9477 13.8017 36.0853 13.1755 35.0946 13.1755C33.6347 13.1755 32.0207 14.1939 30.2529 16.2295C28.8584 17.834 27.9576 19.194 27.5513 20.3111C27.0135 21.7884 26.9815 23.1133 27.4564 24.2844C27.8983 25.3475 28.5337 25.8789 29.3628 25.8789C30.5879 25.8789 32.21 25.0864 34.2286 23.5004C36.2472 21.9152 37.5288 20.3743 38.0733 18.8782ZM40.1151 18.9869C39.5052 20.662 38.0766 22.4824 35.8307 24.4467C33.2381 26.7167 30.8518 27.852 28.6716 27.852C27.248 27.852 26.1931 27.0997 25.5065 25.595C24.8195 24.0908 24.7779 22.5098 25.3814 20.8517C26.2929 18.3472 27.855 16.0856 30.0672 14.0677C32.1185 12.1937 33.838 11.2563 35.2254 11.2563C37.1893 11.2563 38.6865 12.0939 39.7162 13.7701C40.6884 15.3557 40.8734 16.9775 40.27 18.6349C40.1929 18.7972 40.1414 18.9152 40.1151 18.9869Z" fill="#DC1F26"/>
<path fill-rule="evenodd" clip-rule="evenodd" d="M51.5537 15.2567C51.8158 14.5363 51.8811 13.9236 51.7501 13.4185C51.6176 12.9145 51.2908 12.6619 50.7683 12.6619C49.9212 12.6619 49.095 12.8783 48.289 13.3105C48.0876 13.4185 47.4099 13.8693 46.2562 14.6621C45.9511 15.9958 45.6449 17.3559 45.3384 18.7433C45.0315 20.1311 44.8372 21.1853 44.7551 21.9056C46.9275 20.7885 48.3636 19.8881 49.0633 19.2029C50.1531 18.1398 50.9832 16.8242 51.5537 15.2567ZM53.5489 15.1214C52.7554 17.3016 51.3126 19.2118 49.2205 20.8514C48.2845 21.591 46.6254 22.6086 44.2434 23.9058C44.0893 24.429 43.9323 25.0456 43.7724 25.7571C43.6119 26.4696 43.462 27.1676 43.321 27.8517C43.2158 28.1401 43.0031 28.415 42.683 28.6761C42.3626 28.9372 42.0494 29.0683 41.7428 29.0683C41.2743 29.0683 41.3041 27.8968 41.8323 25.5546C42.2195 23.8969 42.4887 22.7617 42.6393 22.149C42.7907 21.5366 43.0325 20.4014 43.3657 18.7433C43.5916 17.6262 43.8069 16.7887 44.0104 16.2296C43.2109 16.0498 42.893 15.7344 43.0574 15.2837C43.1228 15.104 43.3426 14.8201 43.7184 14.4326C44.0935 14.0447 44.4398 13.7613 44.7581 13.5809C44.8025 13.3106 44.8739 13.0402 44.9723 12.7699C45.097 12.4279 45.2508 12.153 45.4344 11.9455C45.6177 11.7388 45.8514 11.617 46.1345 11.5807C46.4361 11.5449 46.6041 11.6528 46.6385 11.905C46.6328 12.2659 46.6275 12.554 46.6208 12.7699C47.984 11.9956 48.8269 11.536 49.1498 11.3918C50.1966 10.9414 51.2785 10.7158 52.396 10.7158C53.2967 10.7158 53.8256 11.1936 53.9826 12.1483C54.1137 12.9774 53.9688 13.9687 53.5489 15.1214Z" fill="#DC1F26"/>
<path fill-rule="evenodd" clip-rule="evenodd" d="M68.9126 11.5265C68.7485 11.9773 68.0573 13.554 66.8396 16.2567C65.6213 18.9594 64.8715 20.6985 64.5898 21.4735C64.3927 22.0138 64.1472 22.7121 63.8542 23.5678C63.5604 24.4242 63.2514 25.3473 62.9268 26.3383C62.4021 27.7801 61.7972 28.5004 61.1128 28.5004C60.7703 28.5004 60.5544 28.3882 60.4652 28.1626C60.3761 27.9374 60.4265 27.5638 60.6169 27.0413C60.825 26.3202 61.0392 25.5949 61.2602 24.8653C61.4807 24.1357 61.7056 23.4555 61.9354 22.8247C62.1847 22.1402 62.568 21.1983 63.0852 20.0002C63.6023 18.8017 64.1454 17.545 64.7141 16.2294C64.4847 16.4638 63.7569 17.2751 62.5314 18.6621C61.4989 19.8158 60.4663 20.9688 59.4341 22.1218C58.1149 23.6179 57.207 24.6266 56.7108 25.1491C55.8029 26.1583 55.1962 26.8342 54.8918 27.1763C54.0841 28.0593 53.4273 28.5004 52.9229 28.5004C52.4906 28.5004 52.2619 28.3747 52.2367 28.1222C52.2107 27.87 52.2836 27.5098 52.4544 27.0413L54.3629 21.7978C54.8417 20.4825 55.3734 19.0319 55.9602 17.4459C56.546 15.8607 57.186 14.1397 57.8797 12.2835C58.0239 11.8874 58.2271 11.5631 58.4907 11.3106C58.7535 11.0584 59.1101 10.9319 59.5609 10.9319C59.8671 10.9319 60.0503 11.036 60.11 11.2427C60.1697 11.4505 60.0649 11.9233 59.796 12.6621L57.5139 18.9324C57.2056 19.7796 56.8322 20.7432 56.3936 21.8245C55.9549 22.9057 55.5887 23.7258 55.2957 24.2842C56.6163 22.9327 58.6043 20.7255 61.2602 17.6619C63.916 14.599 65.5329 12.644 66.1111 11.7968C66.3683 11.4367 66.7267 11.1578 67.187 10.9589C67.6459 10.7611 68.0739 10.6616 68.4703 10.6616C68.9744 10.6616 69.1221 10.9504 68.9126 11.5265Z" fill="#DC1F26"/>
<path fill-rule="evenodd" clip-rule="evenodd" d="M82.8171 11.7156C82.594 12.3283 81.7558 12.8238 80.303 13.2021C80.1027 13.2564 78.9053 13.5267 76.7105 14.013C76.3628 14.9685 75.8992 16.5626 75.3206 18.7972C75.007 20.0045 74.7456 20.8964 74.536 21.4732C74.2603 22.2298 73.9982 23.1214 73.751 24.149C73.5031 25.1758 73.248 26.2482 72.9855 27.3653C72.8282 27.7972 72.6616 28.0945 72.4854 28.2568C72.3092 28.4192 72.0318 28.5002 71.6539 28.5002C71.0767 28.5002 70.8909 27.8967 71.0962 26.6893C71.1406 26.419 71.4145 25.3335 71.9171 23.4322C72.4197 21.5319 72.8126 20.0674 73.0967 19.0401C73.605 17.1483 74.0462 15.6888 74.4198 14.6616C72.2709 15.2203 71.1172 15.5176 70.9602 15.5538C70.1489 15.752 69.6264 15.8512 69.3923 15.8512C69.122 15.8512 68.9391 15.7968 68.8432 15.6888C68.7477 15.5808 68.7654 15.3464 68.8965 14.9862C69.0606 14.5358 69.7774 14.0762 71.0469 13.6074C71.6301 13.3914 72.7728 13.0493 74.4749 12.5805C75.462 12.2928 76.8725 11.945 78.7053 11.5397C80.5374 11.1345 81.5981 10.9316 81.8861 10.9316H82.2104C82.4811 10.9316 82.6786 10.9817 82.805 11.0805C82.9311 11.1796 82.935 11.3913 82.8171 11.7156Z" fill="#DC1F26"/>
<path fill-rule="evenodd" clip-rule="evenodd" d="M88.4924 20.2568C88.6238 19.8963 88.6547 19.6129 88.5861 19.4058C88.5172 19.1983 88.2753 19.0946 87.8615 19.0946C87.1941 19.0946 86.684 19.1486 86.3295 19.2566C85.9743 19.3649 85.34 19.6352 84.426 20.0675L82.7214 25.4189C84.0598 24.4642 85.1514 23.6444 85.995 22.9595C87.4303 21.7884 88.2629 20.8877 88.4924 20.2568ZM90.7675 20.0945C90.5118 20.7971 89.3339 22.0765 87.2354 23.9328C85.0069 25.8967 83.2171 27.1488 81.8677 27.6898C81.5878 28.0137 81.239 28.203 80.8234 28.257C80.5396 28.2936 80.3378 28.1533 80.2188 27.8382C80.0995 27.5232 80.1119 27.1673 80.2561 26.7709C80.7939 25.0947 81.3807 23.3109 82.0147 21.4191C82.6491 19.5266 83.2881 17.6984 83.9307 15.932C84.2191 15.1395 84.5217 14.3826 84.8382 13.6619C85.5806 11.9683 85.988 11.0224 86.0604 10.8238C86.2341 10.4455 86.411 10.1575 86.5915 9.95892C86.7715 9.76108 87.0148 9.66162 87.3214 9.66162C87.916 9.66162 88.1309 9.88717 87.9671 10.3372C87.8755 10.5898 87.6659 11.1393 87.3399 11.986C87.0134 12.8336 86.7325 13.5805 86.4963 14.2291L85.1486 17.9324C86.6987 17.3378 87.9234 17.0402 88.8249 17.0402C89.4735 17.0402 90.0166 17.2565 90.4539 17.6891C91.0368 18.266 91.1412 19.0673 90.7675 20.0945Z" fill="#DC1F26"/>
<path fill-rule="evenodd" clip-rule="evenodd" d="M113.355 27.2033C113.17 27.5642 113.05 27.7709 112.994 27.8249C112.827 27.9872 112.572 28.0682 112.229 28.0682C111.797 28.0682 111.511 27.8163 111.37 27.3116C111.278 26.9696 111.236 26.3927 111.243 25.5818C111.261 24.5911 111.275 23.8612 111.283 23.3923C111.296 22.5637 111.314 21.9694 111.338 21.6085C111.382 20.7433 111.465 19.699 111.587 18.4732C111.708 17.2481 111.837 15.9776 111.974 14.6623C110.449 16.9689 109.159 18.9282 108.104 20.5408C107.049 22.1538 106.081 23.6719 105.203 25.0948C104.913 25.5456 104.632 25.9963 104.36 26.4463C103.949 27.1315 103.592 27.8885 103.291 28.7171C103.205 28.9509 103.033 29.1267 102.774 29.2439C102.515 29.3608 102.223 29.4197 101.899 29.4197C101.611 29.4197 101.452 29.2979 101.424 29.0549C101.395 28.8116 101.457 28.4827 101.607 28.0682C101.719 27.762 102.677 26.1672 104.484 23.2844C106.46 20.1313 108.265 17.3738 109.9 15.0135C110.748 13.7704 111.661 12.4998 112.638 11.2026C113.433 10.1576 113.974 9.63477 114.263 9.63477C114.461 9.63477 114.569 9.79709 114.586 10.1214C114.603 10.4457 114.575 10.932 114.501 11.5809C114.269 13.6535 114.037 15.7257 113.806 17.7976C113.746 19.7437 113.686 21.6899 113.627 23.6353C113.567 25.78 113.477 26.9696 113.355 27.2033Z" fill="#DC1F26"/>
<path fill-rule="evenodd" clip-rule="evenodd" d="M127.266 24.5542C127.069 25.0945 125.697 26.0052 123.15 27.2843C120.604 28.5634 118.808 29.2031 117.762 29.2031C117.492 29.2031 117.313 29.0905 117.224 28.8657C117.134 28.6397 117.145 28.3744 117.257 28.0679C117.368 27.7617 117.544 27.5273 117.783 27.3653C117.979 26.825 118.164 26.2301 118.338 25.5815C118.51 24.9325 118.774 23.901 119.126 22.4866C119.479 21.0719 119.812 19.8109 120.125 18.7023C120.438 17.5945 120.725 16.6077 120.986 15.7428C120.744 15.8149 120.559 15.7524 120.433 15.5539C120.307 15.3556 120.296 15.1123 120.402 14.8239C120.5 14.5536 120.672 14.3284 120.918 14.1483C121.065 14.0403 121.373 13.8873 121.841 13.6887C122.071 13.0582 122.328 12.5631 122.613 12.2022C122.896 11.842 123.183 11.6616 123.471 11.6616C123.705 11.6616 123.857 11.7653 123.926 11.9727C123.994 12.1802 123.943 12.5176 123.773 12.9858C123.955 12.9321 125.42 12.3738 128.167 11.3103C129.109 10.9501 129.706 10.7697 129.959 10.7697C130.145 10.7519 130.292 10.7427 130.401 10.7427C130.671 10.7427 130.869 10.7928 130.995 10.8915C131.121 10.9906 131.132 11.1842 131.027 11.4726C130.831 12.0132 129.37 12.806 126.648 13.851C125.45 14.3199 124.256 14.7792 123.065 15.2296C122.704 16.2206 122.429 17.0766 122.239 17.7973C122.008 18.8242 121.808 19.6717 121.638 20.338C122.526 19.9775 123.628 19.5722 124.946 19.1215C126.263 18.6714 127.03 18.4459 127.246 18.4459C127.444 18.4459 127.579 18.5315 127.653 18.7023C127.725 18.8739 127.729 19.0497 127.664 19.2298C127.506 19.6624 126.54 20.284 124.768 21.0946C123.641 21.6171 122.4 22.1311 121.045 22.6355C120.953 23.0858 120.863 23.4823 120.774 23.8243C120.491 25.0501 120.228 25.996 119.985 26.6627C120.403 26.5544 120.943 26.3565 121.606 26.0677C122.397 25.7257 123.019 25.4554 123.469 25.2572C124.359 24.8427 125.008 24.5457 125.416 24.3653C126.164 24.0406 126.652 23.8875 126.88 23.9057C127.295 23.9057 127.423 24.122 127.266 24.5542Z" fill="#DC1F26"/>
<path fill-rule="evenodd" clip-rule="evenodd" d="M144.5 10.1752C144.303 10.7159 142.843 11.509 140.12 12.5537C138.923 13.0225 137.729 13.4822 136.538 13.9322C136.275 14.6529 136.003 15.5721 135.723 16.6889C134.998 19.5724 134.439 21.5541 134.045 22.6356C133.711 23.5545 133.333 24.7033 132.913 26.0814C132.492 27.46 132.272 28.1764 132.253 28.2304C132.141 28.5366 131.987 28.7749 131.789 28.9465C131.592 29.1177 131.321 29.2033 130.98 29.2033C130.709 29.2033 130.526 29.1131 130.429 28.933C130.332 28.7529 130.337 28.5184 130.441 28.2304L130.914 26.9328C131.268 25.9599 131.533 25.1941 131.709 24.6354C131.886 24.077 132.076 23.3784 132.282 22.5408C132.488 21.7032 132.815 20.5094 133.261 18.9593C133.708 17.4103 134.144 15.9053 134.566 14.4458C134.324 14.5183 134.128 14.4639 133.977 14.2835C133.826 14.1038 133.785 13.8693 133.855 13.5805C133.899 13.3106 134.065 13.0765 134.354 12.878C134.543 12.7522 134.864 12.5902 135.315 12.3913C135.544 11.7609 135.801 11.2657 136.085 10.9052C136.369 10.545 136.656 10.3642 136.944 10.3642C137.178 10.3642 137.329 10.4683 137.399 10.6754C137.467 10.8828 137.416 11.2206 137.246 11.6888C137.428 11.6348 138.892 11.0764 141.64 10.0133C142.582 9.65275 143.179 9.47231 143.431 9.47231C143.618 9.45455 143.766 9.44531 143.874 9.44531C144.144 9.44531 144.342 9.4954 144.468 9.59414C144.594 9.69324 144.605 9.88718 144.5 10.1752Z" fill="#DC1F26"/>
<path fill-rule="evenodd" clip-rule="evenodd" d="M148.379 26.7708C148.254 27.1132 148.139 27.3562 148.032 27.5004C147.826 27.7704 147.551 27.9057 147.209 27.9057C146.542 27.9057 145.595 27.6357 144.369 27.0951C143.445 26.6625 142.521 26.2302 141.598 25.7976C141.355 26.4647 141.121 26.9328 140.897 27.2031C140.51 27.672 140.028 27.9057 139.452 27.9057C139.128 27.9057 138.988 27.7434 139.034 27.4191C139.08 27.0951 139.231 26.5815 139.487 25.8786C139.256 25.5724 139.239 25.149 139.435 24.6084C139.521 24.3747 139.681 24.131 139.918 23.8784C140.153 23.6263 140.407 23.4014 140.677 23.2029C141.005 22.3021 141.632 20.6039 142.558 18.1079C143.485 15.6126 144.004 14.2117 144.116 13.9048C144.496 12.8602 144.839 12.0762 145.147 11.5534C145.454 11.0312 145.734 10.7698 145.986 10.7698C146.292 10.7698 146.478 10.8917 146.543 11.1346C146.607 11.3779 146.492 11.9047 146.197 12.716C145.81 13.7791 145.372 14.9956 144.882 16.3646C144.392 17.7342 143.852 19.2566 143.261 20.9324C144.165 20.2298 145.007 19.4996 145.787 18.743C146.418 18.1487 147.165 17.3694 148.03 16.4051C148.894 15.4414 149.63 14.5722 150.236 13.7972C150.843 13.0225 151.201 12.4819 151.313 12.1753C151.516 11.617 151.789 11.1662 152.129 10.8238C152.47 10.4818 152.803 10.3105 153.127 10.3105C153.721 10.3105 153.864 10.7343 153.557 11.5807C153.274 12.3558 152.723 13.2882 151.903 14.3783C151.082 15.4688 150.121 16.5901 149.016 17.7431C147.818 19.0044 146.522 20.2526 145.126 21.4865C143.731 22.7212 142.9 23.4554 142.635 23.6895L146.207 25.3113C146.694 25.5095 147.189 25.7077 147.693 25.9056C148.261 26.1762 148.49 26.4647 148.379 26.7708Z" fill="#DC1F26"/>
<path fill-rule="evenodd" clip-rule="evenodd" d="M165.279 18.8782C165.752 17.5814 165.621 16.3066 164.888 15.0538C164.154 13.8017 163.291 13.1755 162.3 13.1755C160.841 13.1755 159.227 14.1939 157.459 16.2295C156.065 17.834 155.164 19.194 154.757 20.3111C154.22 21.7884 154.187 23.1133 154.663 24.2844C155.104 25.3475 155.74 25.8789 156.569 25.8789C157.794 25.8789 159.416 25.0864 161.435 23.5004C163.453 21.9152 164.735 20.3743 165.279 18.8782ZM167.321 18.9869C166.711 20.662 165.283 22.4824 163.037 24.4467C160.444 26.7167 158.058 27.852 155.878 27.852C154.454 27.852 153.399 27.0997 152.712 25.595C152.026 24.0908 151.984 22.5098 152.588 20.8517C153.499 18.3472 155.061 16.0856 157.273 14.0677C159.324 12.1937 161.044 11.2563 162.431 11.2563C164.395 11.2563 165.892 12.0939 166.923 13.7701C167.894 15.3557 168.079 16.9775 167.476 18.6349C167.399 18.7972 167.347 18.9152 167.321 18.9869Z" fill="#DC1F26"/>
<path fill-rule="evenodd" clip-rule="evenodd" d="M182.111 2.42149L179.329 10.0668C178.672 11.8691 178.107 13.3169 177.632 14.4109C177.156 15.5049 176.334 17.1974 175.166 19.4881C174.624 20.6212 173.775 21.187 172.617 21.187C172.179 21.187 171.916 21.078 171.829 20.8588C171.741 20.6407 171.773 20.325 171.922 19.9129C172.025 19.6302 172.113 19.4242 172.186 19.2952C172.796 18.1114 173.848 15.859 175.34 12.5379C175.579 12.0232 176.236 10.6074 177.311 8.29045C178.065 6.64375 178.832 4.99598 179.612 3.34821C180.468 1.7015 181.168 0.877441 181.708 0.877441C182.094 0.877441 182.321 0.980449 182.387 1.18575C182.454 1.39248 182.422 1.67522 182.29 2.03575C182.208 2.1899 182.148 2.31884 182.111 2.42149ZM174.367 25.8206C174.16 26.3875 173.572 26.9793 172.6 27.5966C171.629 28.2147 170.706 28.5233 169.831 28.5233C169.213 28.5233 168.834 28.4335 168.694 28.2534C168.553 28.0737 168.548 27.803 168.679 27.4421C168.82 27.056 169.511 26.4834 170.753 25.724C171.995 24.9653 172.886 24.5849 173.427 24.5849C174.353 24.5849 174.667 24.9973 174.367 25.8206Z" fill="#DC1F26"/>
</svg>
