<svg width="40" height="40" viewBox="0 0 40 40" fill="none" xmlns="http://www.w3.org/2000/svg">
<circle opacity="0.5" cx="20" cy="20" r="19" stroke="#779BAB" stroke-width="2"/>
<g clip-path="url(#clip0)">
<path d="M27.8574 23.5781C27.8144 23.506 27.5484 22.928 26.2683 21.7399C24.9282 20.4958 25.1082 20.6978 26.7223 18.5467C27.7054 17.2366 28.0984 16.4365 27.9754 16.0945C27.8584 15.7685 27.1353 15.8545 27.1353 15.8545L24.7312 15.8685C24.7312 15.8685 24.5531 15.8445 24.4201 15.9235C24.2911 16.0015 24.2081 16.1815 24.2081 16.1815C24.2081 16.1815 23.8271 17.1956 23.3191 18.0576C22.248 19.8768 21.8189 19.9728 21.6439 19.8598C21.2369 19.5968 21.3389 18.8017 21.3389 18.2377C21.3389 16.4745 21.6059 15.7395 20.8179 15.5495C20.5559 15.4865 20.3638 15.4444 19.6948 15.4374C18.8367 15.4284 18.1097 15.4404 17.6986 15.6415C17.4246 15.7755 17.2136 16.0745 17.3426 16.0915C17.5016 16.1125 17.8617 16.1885 18.0527 16.4485C18.2997 16.7835 18.2907 17.5376 18.2907 17.5376C18.2907 17.5376 18.4327 19.6128 17.9597 19.8708C17.6346 20.0478 17.1896 19.6868 16.2345 18.0356C15.7455 17.1906 15.3755 16.2555 15.3755 16.2555C15.3755 16.2555 15.3045 16.0815 15.1775 15.9885C15.0234 15.8755 14.8074 15.8395 14.8074 15.8395L12.5213 15.8535C12.5213 15.8535 12.1782 15.8635 12.0522 16.0125C11.9402 16.1455 12.0432 16.4195 12.0432 16.4195C12.0432 16.4195 13.8334 20.6068 15.8595 22.718C17.7186 24.6531 19.8288 24.5261 19.8288 24.5261H20.7849C20.7849 24.5261 21.0739 24.4941 21.2209 24.3351C21.3569 24.1891 21.3519 23.9151 21.3519 23.9151C21.3519 23.9151 21.3329 22.632 21.929 22.443C22.516 22.257 23.2701 23.6831 24.0691 24.2321C24.6732 24.6471 25.1322 24.5561 25.1322 24.5561L27.2693 24.5261C27.2693 24.5261 28.3874 24.4571 27.8574 23.5781Z" fill="#6DD1FF"/>
</g>
<defs>
<clipPath id="clip0">
<rect width="16" height="16" fill="white" transform="translate(12 12)"/>
</clipPath>
</defs>
</svg>
