<svg width="40" height="40" viewBox="0 0 40 40" fill="none" xmlns="http://www.w3.org/2000/svg">
<circle opacity="0.5" cx="20" cy="20" r="19" stroke="#779BAB" stroke-width="2"/>
<path d="M27.1831 16.2508C27.0103 15.6082 26.5036 15.1016 25.8611 14.9286C24.6873 14.6074 19.992 14.6074 19.992 14.6074C19.992 14.6074 15.2969 14.6074 14.1231 14.9164C13.493 15.0893 12.9739 15.6083 12.8011 16.2508C12.4922 17.4245 12.4922 19.8586 12.4922 19.8586C12.4922 19.8586 12.4922 22.305 12.8011 23.4664C12.9741 24.1089 13.4806 24.6155 14.1232 24.7885C15.3093 25.1098 19.9922 25.1098 19.9922 25.1098C19.9922 25.1098 24.6873 25.1098 25.8611 24.8008C26.5037 24.6279 27.0103 24.1213 27.1833 23.4788C27.4921 22.305 27.4921 19.871 27.4921 19.871C27.4921 19.871 27.5045 17.4245 27.1831 16.2508ZM18.4971 22.1073V17.6099L22.4015 19.8586L18.4971 22.1073Z" fill="#6DD1FF"/>
</svg>
