<svg width="344" height="538" viewBox="0 0 344 538" fill="none" xmlns="http://www.w3.org/2000/svg">
<path d="M297.405 434.964C336.013 428.476 371.897 407.49 397.208 377.293L403.776 382.82C378.865 412.616 343.942 433.842 306.056 442.012L315.828 486.948C322.156 485.586 328.403 483.824 334.651 481.982L337.214 490.152C327.682 492.955 318.071 495.518 308.299 497.12L297.405 434.964ZM377.744 504.169L358.28 462.518C352.673 465.161 346.906 467.484 341.059 469.726L338.095 461.637C346.265 458.513 354.435 455.149 362.125 450.983L387.276 499.443C417.633 483.744 444.786 461.957 466.733 435.765L473.301 441.292C433.412 489.11 376.222 522.511 314.546 533.004L313.105 524.594C335.452 520.749 357.239 513.781 377.744 504.169ZM350.671 495.839L344.423 478.778C347.307 477.656 350.11 476.535 352.994 475.413L363.166 500.164C346.506 506.972 329.124 512.018 311.422 515.142L309.981 506.732C323.758 504.249 337.454 500.644 350.671 495.839ZM408.662 453.146C406.179 455.149 403.536 456.911 400.972 458.753L396.086 451.704C398.569 449.862 401.133 448.26 403.536 446.258L408.662 453.146ZM424.201 440.25L416.992 446.498L411.465 439.93L418.354 433.923L424.201 440.25ZM331.767 472.85L323.357 475.253L316.469 449.381C350.43 440.41 381.669 421.427 405.458 395.475L445.587 432.481C448.15 429.757 450.473 426.874 452.956 424.151L459.524 429.677C440.942 452.025 418.194 470.848 393.123 485.426L365.809 438.168C353.394 445.377 340.178 451.144 326.481 455.469L331.767 472.85ZM397.208 472.85C412.186 463.319 426.123 452.185 438.699 439.69L406.179 407.17C396.006 417.262 384.712 426.313 372.538 434.003L397.208 472.85ZM397.608 438.728C395.366 440.571 392.883 442.173 390.48 443.935L385.594 436.886C387.836 435.204 390.239 433.682 392.402 431.92L397.608 438.728ZM411.946 426.794L405.298 432.561L399.771 425.993L406.099 420.466L411.946 426.794Z" fill="#6DD1FF" fill-opacity="0.13"/>
<path d="M183.906 415.02C217.707 434.804 258.718 441.933 297.405 434.964L298.847 443.374C260.56 450.183 220.11 444.015 185.908 425.913L164.522 466.603C170.289 469.647 176.136 472.37 182.144 474.933L178.86 482.863C169.728 478.938 160.757 474.693 152.267 469.647L183.906 415.02ZM200.967 519.708L212.821 475.253C206.814 473.652 200.887 471.729 195.039 469.727L198.003 461.637C206.253 464.44 214.664 467.164 223.234 468.926L211.38 522.191C244.781 529.64 279.463 530.361 313.104 524.514L314.546 532.924C253.271 543.898 187.991 532.604 134.005 501.045L138.33 493.596C157.874 505.13 179.1 513.781 200.967 519.708ZM185.508 495.839L191.755 478.778L200.486 481.741L192.396 507.213C175.255 501.766 158.755 494.397 143.216 485.426L147.541 477.977C159.556 485.025 172.372 490.953 185.508 495.839ZM257.436 500.404C254.232 500.324 251.108 499.924 247.904 499.764L248.625 491.193C251.669 491.433 254.713 491.754 257.756 491.834L257.436 500.404ZM277.621 500.484L268.089 500.725V492.154L277.3 491.914L277.621 500.484ZM185.908 466.122C183.185 465.001 180.542 463.719 177.898 462.518L189.192 438.248C220.911 453.226 257.116 458.673 292.039 454.108L298.927 508.254C302.612 507.854 306.296 507.293 309.901 506.572L311.342 514.982C282.667 520.028 253.271 520.028 224.676 514.982L234.127 461.236C219.95 458.753 206.173 454.748 192.877 449.221L185.908 466.122ZM236.05 508.174C253.671 510.497 271.453 510.897 289.075 509.375L285.15 463.559C270.813 464.761 256.315 464.44 242.137 462.598L236.05 508.174ZM258.237 482.302C255.273 482.222 252.39 481.902 249.506 481.661L250.227 473.091C253.031 473.251 255.834 473.571 258.638 473.652L258.237 482.302ZM276.9 482.302L268.089 482.542V473.972L276.5 473.732L276.9 482.302Z" fill="#6DD1FF" fill-opacity="0.13"/>
<path d="M109.655 326.672C123.031 363.437 149.784 395.476 183.826 414.94L179.501 422.389C145.779 403.086 118.866 372.168 104.208 336.364L61.7559 353.905C64.239 359.913 66.9623 365.84 70.0061 371.527L62.3967 375.452C57.6709 366.721 53.9063 357.51 50.3819 348.218L109.655 326.672ZM55.5883 417.904L93.2346 391.471C89.6302 386.425 86.266 381.219 83.2223 375.772L90.6714 371.447C94.9967 379.056 99.9628 386.345 105.249 393.314L61.9161 426.474C82.6616 453.628 108.774 476.616 138.41 493.677L134.085 501.126C79.8581 470.048 37.5662 419.506 16.1799 360.714L24.2699 357.75C32.1195 379.056 42.4522 399.401 55.5883 417.904ZM59.1928 389.709L74.9721 380.578C76.494 383.221 78.0159 385.865 79.698 388.428L57.1102 402.765C47.4984 387.627 39.4085 371.447 33.321 354.546L41.4109 351.582C46.1367 364.799 52.1441 377.534 59.1928 389.709ZM111.177 439.45L104.288 432.882L110.376 426.795L117.024 433.123L111.177 439.45ZM126.636 452.426C124.153 450.424 121.589 448.582 119.186 446.499L124.713 439.931C127.036 441.933 129.519 443.776 131.842 445.698L126.636 452.426ZM78.4965 367.122C77.2149 364.478 75.7731 361.915 74.5717 359.272L98.8415 347.978C113.66 379.857 137.769 407.331 167.406 426.314L137.929 472.211C141.053 474.213 144.177 476.216 147.461 477.978L143.136 485.427C117.985 470.849 95.3171 452.026 76.7343 429.678L118.546 394.595C109.254 383.622 101.325 371.527 94.6763 358.791L78.4965 367.122ZM89.7904 431.601C101.805 444.657 115.182 456.431 129.679 466.684L156.112 429.038C144.337 420.787 133.524 411.256 123.752 400.683L89.7904 431.601ZM123.512 426.074L117.184 419.986L123.271 413.899L129.359 419.746L123.512 426.074ZM137.769 438.089C135.527 436.246 133.124 434.564 130.881 432.562L136.408 425.994C138.49 427.836 140.813 429.518 142.976 431.28L137.769 438.089Z" fill="#6DD1FF" fill-opacity="0.13"/>
<path d="M109.655 211.409C96.1982 248.094 96.1982 290.066 109.655 326.751L101.565 329.714C88.3485 293.43 87.4674 252.259 99.2419 215.414L55.4281 201.477C53.5057 207.644 51.7435 213.892 50.3819 220.3L42.0516 218.458C44.0541 208.766 47.0978 199.234 50.3819 189.863L109.655 211.409ZM9.6118 246.492L55.4281 250.417C55.9888 244.249 56.7096 238.082 57.831 231.914L66.2413 233.356C64.6394 242.007 63.8384 250.737 63.3578 259.468L8.89092 257.065C7.28895 291.107 12.4953 325.629 24.1897 357.749L16.0998 360.712C-5.36659 301.84 -5.36659 236.159 16.0998 177.287L24.1897 180.251C16.6605 201.637 11.4541 223.904 9.6118 246.492ZM30.5175 227.188L48.4595 230.312C47.8988 233.356 47.4182 236.32 47.0978 239.363L20.5853 235.839C22.9081 218.057 27.2334 200.436 33.3209 183.535L41.4109 186.498C36.5249 199.715 32.9204 213.331 30.5175 227.188ZM38.3671 298.716C37.9666 295.592 37.486 292.388 37.3258 289.265L45.8964 288.544C46.0566 291.587 46.5372 294.631 46.8575 297.675L38.3671 298.716ZM41.8113 318.581C41.0104 315.537 40.6099 312.333 39.9691 309.209L48.3794 307.767C48.9401 310.811 49.3406 313.775 50.1416 316.738L41.8113 318.581ZM59.8335 222.302C60.5544 219.499 61.035 216.535 61.916 213.732L87.7878 220.62C78.6566 254.582 79.3775 291.267 89.7903 324.748L37.7263 341.008L41.3308 351.581L33.2408 354.545C23.3086 327.151 18.3425 297.995 18.2624 269H72.8094C72.8094 254.582 74.4114 240.244 77.5352 226.227L59.8335 222.302ZM27.0732 278.932C27.7941 296.634 30.3573 314.335 35.003 331.476L79.4576 319.622C75.693 305.765 73.6104 291.507 73.0497 277.09L27.0732 278.932ZM56.3893 296.393C55.9888 293.51 55.5883 290.626 55.4281 287.663L63.9986 286.942C64.1588 289.745 64.5593 292.549 64.8797 295.352L56.3893 296.393ZM59.5932 314.736C58.8723 311.932 58.4718 308.969 57.9111 306.085L66.3214 304.644C66.802 307.367 67.2025 310.17 67.9234 312.894L59.5932 314.736Z" fill="#6DD1FF" fill-opacity="0.13"/>
<path d="M183.906 123.061C149.784 142.525 123.111 174.564 109.735 211.329L101.645 208.366C114.941 172.001 140.492 140.042 173.413 119.376L148.743 80.5286C143.216 83.9728 137.929 87.7374 132.803 91.6623L127.597 84.8539C135.526 78.8465 143.696 73.2396 152.347 68.3536L183.906 123.061ZM84.5837 85.5748L117.104 118.095C121.589 113.769 126.075 109.524 130.881 105.519L136.407 112.087C129.679 117.694 123.351 123.862 117.344 130.27L77.2147 93.2642C54.0662 118.335 35.8839 148.052 24.1895 180.251L16.0996 177.287C37.566 118.575 79.8579 68.0332 134.004 36.9551L138.33 44.4042C118.626 55.618 100.683 69.7153 84.5837 85.5748ZM113.019 84.2131L124.713 98.1502L117.825 104.158L99.8024 84.3733C113.019 72.2785 127.597 61.7055 143.136 52.6544L147.461 60.1035C135.286 67.1522 123.752 75.2421 113.019 84.2131ZM73.0496 144.047C74.7316 141.323 76.4938 138.68 78.336 136.117L85.3847 141.003C83.5424 143.486 81.9405 146.049 80.2584 148.612L73.0496 144.047ZM62.8771 161.508C64.2387 158.625 65.9208 155.901 67.5228 153.178L74.9719 157.503C73.45 160.146 71.8481 162.79 70.5665 165.513L62.8771 161.508ZM138.57 99.3517C140.813 97.5094 143.296 95.9075 145.699 94.1453L161.078 116.092C132.242 136.277 109.254 164.712 95.7975 197.152L45.4156 176.086C44.0539 179.53 42.6923 182.974 41.3306 186.419L33.2407 183.455C43.253 156.141 58.0712 130.59 76.7341 108.323L118.545 143.406C127.837 132.432 138.25 122.42 149.704 113.689L138.57 99.3517ZM77.0545 121.699C66.1611 135.716 56.8697 150.935 49.4205 167.035L91.0717 186.499C97.0791 173.443 104.688 161.108 113.499 149.814L77.0545 121.699ZM88.3483 153.899C89.9503 151.416 91.4722 148.933 93.2343 146.61L100.283 151.496C98.6009 153.739 97.0791 156.141 95.5572 158.464L88.3483 153.899ZM78.9768 169.998C80.2584 167.355 81.7803 164.872 83.222 162.309L90.6712 166.634C89.3095 169.037 87.7877 171.44 86.5862 174.003L78.9768 169.998Z" fill="#6DD1FF" fill-opacity="0.13"/>
<path d="M297.405 103.116C258.638 96.2278 217.627 103.276 183.906 123.061L179.581 115.612C213.062 95.9875 253.111 88.298 291.718 93.5044L297.806 47.9285C291.398 46.9673 284.91 46.5668 278.422 46.1663L278.823 37.5958C288.675 38.1565 298.607 39.0375 308.379 40.8798L297.405 103.116ZM245.502 10.6026L249.426 56.4189C255.594 55.8582 261.842 55.698 268.009 55.5378V64.1083C259.198 64.2685 250.468 64.5889 241.737 65.8705L234.849 11.724C200.967 16.0493 167.806 27.183 138.25 44.324L133.925 36.8749C188.071 5.39622 253.271 -5.89764 314.546 5.07583L313.105 13.4862C290.757 9.48124 268.009 8.68026 245.502 10.6026ZM268.089 27.7437V45.926L258.878 46.1663L257.837 19.4134C275.779 18.6926 293.721 19.894 311.423 23.0179L309.981 31.4282C296.124 29.0252 282.107 27.8238 268.089 27.7437ZM198.964 47.8484L208.096 45.2051L210.338 53.4552L201.528 55.9383L198.964 47.8484ZM179.981 54.7368C182.945 53.6154 185.908 52.414 188.872 51.2926L191.836 59.3825C188.952 60.5039 186.149 61.6253 183.265 62.7467L179.981 54.7368ZM277.941 55.7781C280.905 55.8582 283.789 56.1786 286.672 56.4189L284.349 83.0917C249.186 79.8877 213.462 87.0165 182.304 103.196L157.153 54.7368C153.789 56.3388 150.585 58.1811 147.381 60.1034L143.056 52.6543C168.207 38.0764 196.001 27.9039 224.676 22.9378L234.128 76.6838C248.225 74.2007 262.723 73.3196 277.06 73.8803L277.941 55.7781ZM216.506 33.3506C199.125 37.1152 182.224 42.8823 166.124 50.3314L185.588 91.9826C198.564 85.8951 212.261 81.3295 226.278 78.2057L216.506 33.3506ZM204.411 65.2297L212.821 62.8268L215.064 71.0769L206.974 73.3997L204.411 65.2297ZM186.87 71.5575L195.04 68.3535L198.003 76.4435L190.154 79.4872L186.87 71.5575Z" fill="#6DD1FF" fill-opacity="0.13"/>
<path d="M397.208 160.707C371.977 130.59 336.013 109.605 297.405 103.036L298.847 94.6262C337.054 101.114 372.698 120.979 398.89 149.654L432.852 118.656C428.446 113.93 423.881 109.284 419.075 104.879L424.922 98.551C432.211 105.279 439.099 112.488 445.427 120.017L397.208 160.707ZM416.912 56.4993L390.48 94.1456C395.606 97.6699 400.492 101.515 405.298 105.439L399.771 112.007C393.043 106.401 385.994 101.114 378.545 96.4684L408.021 50.572C379.266 32.0693 346.746 19.3337 313.024 13.4865L314.466 5.07617C376.142 15.5691 433.332 48.9701 473.301 96.7087L466.733 102.236C452.235 84.9342 435.495 69.4753 416.912 56.4993ZM423.16 84.2134L411.465 98.1505C409.142 96.148 406.659 94.3058 404.337 92.3834L420.677 71.2374C434.854 82.2109 447.91 94.7062 459.444 108.483L452.876 114.01C443.905 103.197 433.973 93.1844 423.16 84.2134ZM357.319 55.2178C360.282 56.4192 363.086 57.7809 366.05 59.0625L362.445 66.832C359.642 65.6305 356.918 64.2689 354.035 63.0674L357.319 55.2178ZM338.336 48.2492L347.387 51.2929L344.423 59.3829L335.692 56.4192L338.336 48.2492ZM412.667 112.007L418.995 118.095L400.091 136.998C375.181 112.088 343.222 94.466 308.939 86.8566L320.874 33.5912C317.27 32.7101 313.585 32.0693 309.981 31.4285L311.422 23.0182C340.098 27.9843 367.892 38.0767 393.043 52.7347L365.729 99.9927C378.144 107.202 389.839 115.692 400.412 125.464L412.667 112.007ZM380.067 55.2979C364.367 47.0477 347.707 40.5597 330.566 35.914L318.711 80.3686C332.568 84.1333 346.025 89.3397 358.761 95.9878L380.067 55.2979ZM350.27 71.9583C352.994 73.0797 355.637 74.3613 358.28 75.5627L354.676 83.3323C352.112 82.2109 349.549 81.0094 346.986 79.8881L350.27 71.9583ZM332.809 65.5504L341.139 68.3539L338.175 76.4438L330.165 73.7205L332.809 65.5504Z" fill="#6DD1FF" fill-opacity="0.13"/>
</svg>
